<svg xmlns="http://www.w3.org/2000/svg" width="80" height="80" viewBox="0 0 80 80" fill="none"><path d="M21.4958 44.7236L13.8339 46.9686C12.8211 47.2654 12.2406 48.327 12.5373 49.3399L18.8306 70.8179C19.1273 71.8307 20.189 72.4112 21.2018 72.1144L28.8637 69.8694C29.8765 69.5727 30.457 68.511 30.1602 67.4982L23.867 46.0202C23.5702 45.0074 22.5086 44.4269 21.4958 44.7236Z" stroke="black" stroke-width="3" stroke-miterlimit="10"/><path d="M29.7208 65.998C31.6698 65.985 34.5828 65.944 38.8578 65.843C49.2668 65.593 60.2888 60.664 60.2888 60.664C61.0631 60.4342 61.7151 59.9075 62.1025 59.1987C62.49 58.49 62.5814 57.6568 62.3568 56.881L62.2979 56.681C62.0685 55.9066 61.5419 55.2545 60.8333 54.867C60.1247 54.4795 59.2915 54.3882 58.5158 54.613L60.0818 54.154C60.8564 53.9249 61.5087 53.3984 61.8962 52.6897C62.2837 51.981 62.3749 51.1477 62.1498 50.372L62.0918 50.172C61.8624 49.3976 61.3359 48.7455 60.6273 48.358C59.9187 47.9705 59.0855 47.8792 58.3098 48.104L60.0588 47.592C60.8333 47.3624 61.4855 46.8357 61.8729 46.1269C62.2604 45.4181 62.3517 44.5849 62.1268 43.809L62.0688 43.609C61.8395 42.8346 61.3129 42.1825 60.6043 41.795C59.8957 41.4075 59.0625 41.3162 58.2868 41.541L66.0648 39.261C66.9272 39.023 67.6823 38.4974 68.2048 37.7713C68.7274 37.0452 68.986 36.1623 68.9378 35.269C68.8953 34.6976 68.7257 34.1429 68.4415 33.6454C68.1573 33.1478 67.7657 32.72 67.2952 32.393C66.8246 32.0661 66.287 31.8483 65.7216 31.7556C65.1561 31.6629 64.5772 31.6975 64.0269 31.857L45.4208 37.309L41.2208 38.538C41.1101 38.5714 40.9931 38.5788 40.879 38.5596C40.7649 38.5405 40.6567 38.4953 40.5629 38.4276C40.469 38.3599 40.3921 38.2715 40.338 38.1693C40.2839 38.067 40.2541 37.9536 40.2509 37.838C40.1819 35.348 39.6678 28.798 36.2558 26.188C32.0028 22.933 31.1688 28.279 31.1688 28.279C31.5983 31.6608 31.1758 35.0963 29.9396 38.2732C28.7035 41.4502 26.693 44.2678 24.0908 46.47" stroke="black" stroke-width="3" stroke-miterlimit="10"/><path d="M59.0685 41.3138L47.1429 44.8081C45.9594 45.1549 45.2811 46.3954 45.6279 47.5789L46.1447 49.3428C46.4915 50.5263 47.732 51.2046 48.9155 50.8578L60.8411 47.3635C62.0246 47.0167 62.7029 45.7762 62.3561 44.5927L61.8393 42.8289C61.4925 41.6454 60.252 40.9671 59.0685 41.3138Z" stroke="black" stroke-width="3" stroke-miterlimit="10"/><path d="M59.0925 47.8757L48.9173 50.8571C47.7338 51.2039 47.0555 52.4444 47.4023 53.6279L47.9191 55.3917C48.2659 56.5752 49.5064 57.2535 50.6899 56.9068L60.8651 53.9253C62.0486 53.5786 62.7269 52.338 62.3801 51.1545L61.8633 49.3907C61.5165 48.2072 60.276 47.5289 59.0925 47.8757Z" stroke="black" stroke-width="3" stroke-miterlimit="10"/><path d="M59.2984 54.3843L51.6097 56.6371C50.4262 56.9839 49.7479 58.2244 50.0947 59.4079L50.6115 61.1718C50.9583 62.3553 52.1988 63.0336 53.3823 62.6868L61.071 60.4339C62.2545 60.0871 62.9328 58.8466 62.5861 57.6631L62.0692 55.8993C61.7225 54.7158 60.4819 54.0375 59.2984 54.3843Z" stroke="black" stroke-width="3" stroke-miterlimit="10"/><path d="M37.9463 8.59198C37.9463 8.59198 42.5024 10.7459 43.6539 18.6515" stroke="black" stroke-width="3" stroke-miterlimit="10"/><path d="M50.9602 17.3011C50.9602 17.3011 51.0475 9.57274 58.3184 8.18027" stroke="black" stroke-width="3" stroke-miterlimit="10"/><path d="M54.2456 26.3803C54.2456 26.3803 57.9846 19.7383 64.6187 19.2684" stroke="black" stroke-width="3" stroke-miterlimit="10"/></svg>