<svg xmlns="http://www.w3.org/2000/svg" width="80" height="80" viewBox="0 0 80 80" fill="none"><path d="M18.5 53.218H68.094" stroke="black" stroke-width="3" stroke-miterlimit="10"/><path d="M30.5 69.793H55.336" stroke="black" stroke-width="3" stroke-miterlimit="10"/><path d="M38.4426 59.524L34.8906 69.793" stroke="black" stroke-width="3" stroke-miterlimit="10"/><path d="M47.6504 59.524L51.2024 69.793" stroke="black" stroke-width="3" stroke-miterlimit="10"/><path d="M28.0893 39.006C26.3833 36.949 23.1843 33.506 23.1843 33.506C23.1843 33.506 21.8302 32.037 20.3842 34.346C18.9512 36.631 18.2793 37.014 15.9133 34.611C13.4542 32.0038 11.4391 29.0112 9.94826 25.752C9.02126 23.598 8.52229 21.299 10.4653 21.035C14.2113 20.529 13.4933 18.88 13.4583 18.68C12.4265 16.2158 11.27 13.8057 9.99324 11.459C8.57024 8.93004 7.16127 10.459 7.16127 10.459C5.49715 11.9214 4.09466 13.657 3.01424 15.591C2.1303 17.1915 1.80885 19.0422 2.10127 20.847C2.80914 25.1604 4.37684 29.2875 6.71126 32.983C9.04568 36.6785 12.0992 39.867 15.6903 42.359C17.1914 43.3945 18.9959 43.8979 20.8162 43.789C23.0293 43.6451 25.2016 43.1243 27.2393 42.249C27.2393 42.249 29.7963 41.062 28.0893 39.006Z" stroke="black" stroke-width="3" stroke-miterlimit="10" stroke-linecap="round"/><path d="M19.5039 27.53H66.7639V59.524H19.5039V48.319" stroke="black" stroke-width="3" stroke-linejoin="round"/></svg>