<svg xmlns="http://www.w3.org/2000/svg" width="81" height="80" viewBox="0 0 81 80" fill="none"><path d="M29.6821 67.7999C32.4546 67.7999 34.7021 65.5524 34.7021 62.7799C34.7021 60.0074 32.4546 57.7599 29.6821 57.7599C26.9096 57.7599 24.6621 60.0074 24.6621 62.7799C24.6621 65.5524 26.9096 67.7999 29.6821 67.7999Z" stroke="black" stroke-width="3" stroke-miterlimit="10"/><path d="M69.3706 67.7999C72.1431 67.7999 74.3906 65.5524 74.3906 62.7799C74.3906 60.0074 72.1431 57.7599 69.3706 57.7599C66.5981 57.7599 64.3506 60.0074 64.3506 62.7799C64.3506 65.5524 66.5981 67.7999 69.3706 67.7999Z" stroke="black" stroke-width="3" stroke-miterlimit="10"/><path d="M35.6025 63.397H63.8435" stroke="black" stroke-width="3" stroke-miterlimit="10"/><path d="M23.9982 63.0647H23.0032L20.4412 62.0587C20.0969 61.9668 19.7926 61.7638 19.5756 61.4812C19.3586 61.1985 19.2411 60.8521 19.2412 60.4957V53.1957C19.2416 52.8067 19.3821 52.4309 19.637 52.137C19.8919 51.8432 20.2442 51.651 20.6292 51.5957L24.9922 50.7957C24.9922 50.7957 32.9492 44.1647 42.2322 43.8307C51.5152 43.4967 60.4652 47.4777 66.1032 51.1227C66.1032 51.1227 69.6712 52.1017 73.0672 52.7797C74.8574 53.122 76.6269 53.565 78.3672 54.1067C78.686 54.2434 78.9537 54.4771 79.1323 54.7746C79.3109 55.072 79.3913 55.4181 79.3622 55.7637V63.0557H75.0592" stroke="black" stroke-width="3" stroke-miterlimit="10"/><path d="M44.4922 43.5059V63.3969" stroke="black" stroke-width="3" stroke-miterlimit="10"/><path d="M47.8994 55.3037H52.2034" stroke="black" stroke-width="3" stroke-miterlimit="10"/><path d="M65.9386 51.1281L31.2956 51.0641L28.9756 48.8071" stroke="black" stroke-width="3" stroke-miterlimit="10"/><path d="M43.552 37.5969V31.3479C43.5523 31.2528 43.5902 31.1616 43.6574 31.0944C43.7247 31.0271 43.8159 30.9892 43.911 30.989H48.948C49.0232 30.989 49.0966 30.9652 49.1576 30.9212C49.2186 30.8772 49.2641 30.815 49.2878 30.7437C49.3115 30.6723 49.3121 30.5953 49.2895 30.5235C49.2669 30.4517 49.2223 30.3889 49.162 30.3439L37.843 21.9509L25.867 13.0699C25.8051 13.0245 25.7303 13 25.6535 13C25.5767 13 25.502 13.0245 25.44 13.0699L13.463 21.9509L2.14401 30.3439C2.0837 30.3889 2.03909 30.4517 2.01651 30.5235C1.99393 30.5953 1.99453 30.6723 2.01822 30.7437C2.0419 30.815 2.08747 30.8772 2.14846 30.9212C2.20946 30.9652 2.28277 30.989 2.358 30.989H7.39602C7.49106 30.9892 7.58215 31.0271 7.64926 31.0944C7.71637 31.1617 7.75399 31.2529 7.75399 31.3479V55.291C7.75399 55.386 7.79168 55.4771 7.85879 55.5444C7.9259 55.6117 8.01699 55.6496 8.11203 55.6499H15.345" stroke="black" stroke-width="3" stroke-miterlimit="10"/></svg>