<svg width="49" height="48" viewBox="0 0 49 48" fill="none" xmlns="http://www.w3.org/2000/svg"><path d="M9.14844 19.251L11.9564 10.451C12.0445 10.1753 12.2179 9.93461 12.4515 9.7637C12.6851 9.5928 12.967 9.50046 13.2564 9.5H35.6434C35.9329 9.50061 36.2146 9.59303 36.4482 9.76392C36.6818 9.9348 36.8552 10.1754 36.9434 10.451L39.7514 19.251" stroke="white" stroke-width="2" stroke-miterlimit="10"/><path d="M41.9476 34.2322C42.3264 34.2322 42.6815 34.0833 42.9473 33.8129C43.2128 33.5428 43.3555 33.1859 43.3491 32.8067L43.2184 24.8533C43.1936 23.3555 42.5918 21.9521 41.5239 20.9017C40.4562 19.8514 39.0432 19.2729 37.5455 19.2729H10.9831C9.58571 19.2729 8.26747 19.8127 7.27122 20.7926C6.27502 21.7725 5.71376 23.0815 5.69083 24.4786L5.55391 32.772C5.54761 33.1603 5.69414 33.5267 5.96651 33.8035C6.23852 34.0799 6.60187 34.2322 6.98961 34.2322H41.9476ZM41.9476 36.2322H6.98961C5.06962 36.2322 3.52306 34.6586 3.55417 32.7396L3.6911 24.4456C3.75644 20.4656 7.00205 17.2729 10.9831 17.2729H37.5455C41.734 17.2729 45.1487 20.6317 45.2182 24.8201L45.3489 32.7739C45.381 34.6741 43.8479 36.2322 41.9476 36.2322Z" fill="white"/><path d="M10.5059 34.9839V37.6629C10.503 38.0757 10.3363 38.4703 10.0424 38.7603C9.74858 39.0502 9.35165 39.2115 8.93888 39.2089H6.33887C6.13445 39.2103 5.93175 39.1715 5.74235 39.0945C5.55295 39.0176 5.38056 38.9041 5.23504 38.7606C5.08952 38.617 4.9737 38.4462 4.89423 38.2578C4.81476 38.0695 4.77319 37.8673 4.77188 37.6629L4.67188 33.2139" stroke="white" stroke-width="2" stroke-miterlimit="10"/><path d="M38.3965 34.7201V37.5841C38.3974 37.7881 38.4385 37.99 38.5175 38.1781C38.5964 38.3662 38.7117 38.537 38.8566 38.6805C39.0016 38.8241 39.1734 38.9377 39.3623 39.0148C39.5512 39.092 39.7535 39.1312 39.9575 39.1301H42.5475C42.9595 39.132 43.3553 38.9701 43.648 38.6802C43.9407 38.3903 44.1064 37.9961 44.1085 37.5841L44.2655 32.7031" stroke="white" stroke-width="2" stroke-miterlimit="10"/><path d="M36.4452 23.0918H40.6272C40.9078 23.0918 41.177 23.2033 41.3754 23.4017C41.5738 23.6001 41.6852 23.8692 41.6852 24.1498V25.0428C41.6855 25.2723 41.6405 25.4996 41.5529 25.7117C41.4653 25.9238 41.3368 26.1166 41.1746 26.2791C41.0125 26.4415 40.8199 26.5704 40.608 26.6583C40.396 26.7463 40.1688 26.7917 39.9392 26.7918H36.4452C36.2157 26.7918 35.9883 26.7465 35.7762 26.6586C35.5642 26.5707 35.3715 26.4418 35.2092 26.2794C35.047 26.117 34.9183 25.9241 34.8307 25.712C34.743 25.4998 34.698 25.2724 34.6982 25.0428V24.8428C34.6977 24.613 34.7425 24.3854 34.8301 24.173C34.9176 23.9606 35.0462 23.7675 35.2085 23.6049C35.3708 23.4422 35.5636 23.3132 35.7758 23.2252C35.988 23.1371 36.2155 23.0918 36.4452 23.0918Z" stroke="white" stroke-width="2" stroke-miterlimit="10"/><path d="M44.4923 18.4199H42.5023C42.0389 18.4199 41.5946 18.2359 41.2669 17.9082C40.9393 17.5806 40.7553 17.1363 40.7553 16.6729V15.7799C40.755 15.6407 40.7822 15.5029 40.8353 15.3742C40.8884 15.2455 40.9664 15.1286 41.0648 15.0302C41.1632 14.9317 41.28 14.8536 41.4086 14.8004C41.5372 14.7471 41.6751 14.7198 41.8143 14.7199H44.4923C44.7218 14.7199 44.9492 14.7652 45.1613 14.8531C45.3733 14.941 45.566 15.0699 45.7283 15.2323C45.8905 15.3947 46.0192 15.5876 46.1068 15.7998C46.1945 16.0119 46.2395 16.2393 46.2393 16.4689V16.6689C46.2398 16.8987 46.195 17.1263 46.1074 17.3387C46.0199 17.5511 45.8913 17.7442 45.729 17.9068C45.5667 18.0695 45.3739 18.1985 45.1617 18.2866C44.9495 18.3746 44.722 18.4199 44.4923 18.4199Z" stroke="white" stroke-width="2" stroke-miterlimit="10"/><path d="M4.41107 14.7222H7.08907C7.22809 14.722 7.36578 14.7493 7.49425 14.8024C7.62273 14.8555 7.73948 14.9334 7.83783 15.0317C7.93618 15.13 8.0142 15.2466 8.06744 15.3751C8.12067 15.5035 8.14807 15.6411 8.14807 15.7802V16.6732C8.14833 16.9028 8.10334 17.1301 8.01566 17.3423C7.92798 17.5545 7.79934 17.7473 7.63709 17.9098C7.47484 18.0722 7.28216 18.2011 7.07008 18.289C6.85799 18.3769 6.63065 18.4222 6.40107 18.4222H4.41107C4.18148 18.4222 3.95414 18.3769 3.74206 18.289C3.52997 18.2011 3.33729 18.0722 3.17504 17.9098C3.01279 17.7473 2.88415 17.5545 2.79648 17.3423C2.7088 17.1301 2.6638 16.9028 2.66407 16.6732V16.4732C2.66354 16.2434 2.70834 16.0158 2.7959 15.8034C2.88346 15.591 3.01206 15.3979 3.17434 15.2353C3.33661 15.0726 3.52938 14.9436 3.74159 14.8555C3.95381 14.7675 4.18131 14.7222 4.41107 14.7222Z" stroke="white" stroke-width="2" stroke-miterlimit="10"/><path d="M12.2891 26.79H8.72213C8.25897 26.7898 7.81487 26.6056 7.48746 26.278C7.16005 25.9504 6.97613 25.5062 6.97613 25.043V24.15C6.97586 24.0108 7.0031 23.8728 7.05628 23.7441C7.10946 23.6154 7.18752 23.4984 7.28601 23.3999C7.38449 23.3014 7.50145 23.2234 7.63017 23.1702C7.7589 23.117 7.89685 23.0898 8.03613 23.09H12.2891C12.5187 23.09 12.7461 23.1353 12.9581 23.2232C13.1702 23.3111 13.3629 23.44 13.5252 23.6024C13.6874 23.7649 13.816 23.9577 13.9037 24.1699C13.9914 24.3821 14.0364 24.6095 14.0361 24.839V25.039C14.0367 25.2688 13.9919 25.4964 13.9043 25.7088C13.8167 25.9212 13.6881 26.1143 13.5259 26.2769C13.3636 26.4396 13.1708 26.5686 12.9586 26.6567C12.7464 26.7447 12.5189 26.79 12.2891 26.79Z" stroke="white" stroke-width="2" stroke-miterlimit="10"/><path d="M31.4375 28.4102H17.4375C16.8852 28.4102 16.4375 28.8579 16.4375 29.4102C16.4375 29.9624 16.8852 30.4102 17.4375 30.4102H31.4375C31.9898 30.4102 32.4375 29.9624 32.4375 29.4102C32.4375 28.8579 31.9898 28.4102 31.4375 28.4102Z" fill="white"/></svg>