<svg width="20" height="20" viewBox="0 0 20 20" fill="none" xmlns="http://www.w3.org/2000/svg">
<path d="M12.389 16.999H7.611L7.586 16.989C7.56805 16.9801 7.54882 16.974 7.529 16.971L7.229 16.951L7.152 16.946H7.14C6.881 16.929 6.613 16.912 6.351 16.884C5.9407 16.8371 5.54135 16.7207 5.17 16.54C4.71545 16.3264 4.31074 16.0198 3.982 15.64C3.73658 15.3603 3.53832 15.0425 3.395 14.699C3.13799 14.0607 3.01313 13.3769 3.028 12.689C3.02665 12.6611 3.02126 12.6334 3.012 12.607C3.012 12.59 3.003 12.577 3 12.563V7.43502C3 7.42502 3.005 7.41602 3.008 7.40602V7.39902C3.01662 7.37479 3.02233 7.34961 3.025 7.32402C3.039 7.12402 3.048 6.96302 3.054 6.81802C3.07829 6.34642 3.17718 5.88166 3.347 5.44102C3.57832 4.81765 3.98242 4.27307 4.512 3.87102C5.12548 3.4116 5.85921 3.14027 6.624 3.09002C6.974 3.05502 7.331 3.04702 7.677 3.03902C7.798 3.03902 7.941 3.03402 8.084 3.02902C8.145 3.02902 8.205 3.02902 8.245 3.02902H8.6C8.62864 3.02593 8.65682 3.01955 8.684 3.01002H8.696L8.723 2.99902H11.277L11.3 3.01002C11.3179 3.01973 11.3377 3.02552 11.358 3.02702L11.722 3.03402H11.844C12.11 3.03402 12.444 3.04302 12.753 3.05702C13.062 3.07102 13.395 3.10402 13.694 3.13802C14.1301 3.19355 14.5528 3.32665 14.942 3.53102C15.3613 3.74475 15.7328 4.04141 16.034 4.40302C16.3045 4.72692 16.5173 5.09496 16.663 5.49102C16.8763 6.09649 16.9796 6.7352 16.968 7.37702C16.9693 7.41449 16.9747 7.4517 16.984 7.48802C16.984 7.50602 16.992 7.52502 16.995 7.54402V12.481L16.985 12.499C16.9763 12.5098 16.9705 12.5225 16.968 12.536C16.968 12.614 16.961 12.692 16.958 12.769V12.778C16.958 12.901 16.949 13.03 16.937 13.155C16.937 13.202 16.929 13.255 16.925 13.298C16.914 13.4996 16.8882 13.7002 16.848 13.898C16.6976 14.6877 16.2964 15.4077 15.704 15.951C15.3387 16.2797 14.9113 16.532 14.447 16.693C13.8341 16.8933 13.1916 16.9877 12.547 16.972C12.5095 16.9733 12.4723 16.9787 12.436 16.988H12.42L12.39 16.999H12.389ZM11.739 15.725H12.339C12.324 15.725 12.264 15.725 12.039 15.725C11.788 15.725 11.739 15.725 11.734 15.725H11.739ZM10.006 6.40902C9.05122 6.40027 8.13207 6.77116 7.45075 7.4401C6.76943 8.10905 6.38175 9.02124 6.373 9.97602C6.36425 10.9308 6.73514 11.85 7.40408 12.5313C8.07302 13.2126 8.98522 13.6003 9.94 13.609H9.984C10.9285 13.6216 11.8395 13.2592 12.5173 12.6013C13.1951 11.9433 13.5845 11.0435 13.6 10.099C13.6158 9.61857 13.5345 9.13986 13.361 8.69156C13.1874 8.24326 12.9252 7.83459 12.59 7.49002C11.9455 6.83748 11.0783 6.45245 10.162 6.41202C10.115 6.41002 10.065 6.40902 10.006 6.40902ZM13.756 5.42902C13.629 5.4321 13.5039 5.46162 13.3889 5.51568C13.2739 5.56974 13.1714 5.64717 13.088 5.74302C13.0168 5.81742 12.9621 5.90605 12.9277 6.00309C12.8932 6.10013 12.8797 6.20338 12.888 6.30602C12.8806 6.40889 12.8946 6.51218 12.929 6.6094C12.9634 6.70662 13.0176 6.79569 13.088 6.87102C13.1706 6.96257 13.2704 7.03691 13.3818 7.08977C13.4931 7.14262 13.6139 7.17295 13.737 7.17902H13.756C13.9825 7.17437 14.1989 7.08447 14.362 6.92728C14.5251 6.7701 14.623 6.55718 14.636 6.33102C14.6365 6.10188 14.5495 5.8812 14.3929 5.71396C14.2362 5.54673 14.0217 5.44554 13.793 5.43102L13.756 5.42902ZM10 12.321C9.95 12.321 9.9 12.321 9.863 12.321C9.2747 12.2891 8.72025 12.0358 8.311 11.612C7.99893 11.2833 7.79007 10.8703 7.71026 10.4242C7.63045 9.97801 7.6832 9.51824 7.86197 9.10174C8.04075 8.68524 8.3377 8.33028 8.71611 8.08079C9.09451 7.83131 9.53775 7.69823 9.991 7.69802H10.012C10.3147 7.69868 10.6143 7.75908 10.8936 7.87577C11.173 7.99247 11.4265 8.16315 11.6397 8.37804C11.8529 8.59293 12.0216 8.84779 12.1361 9.12801C12.2506 9.40824 12.3087 9.70831 12.307 10.011C12.3121 10.3071 12.2578 10.6013 12.1474 10.8761C12.0369 11.1509 11.8726 11.4008 11.664 11.611C11.449 11.8357 11.1907 12.0145 10.9047 12.1365C10.6187 12.2585 10.311 12.3213 10 12.321Z" fill="black"/>
</svg>
