<svg width="302" height="24" viewBox="0 0 302 24" fill="none" xmlns="http://www.w3.org/2000/svg">
<path opacity="0.5" d="M184.537 10.0048H179.731V5.97485H177.874V15.7596H179.731V11.6289H184.537V15.7596H186.393V5.97586H184.537V10.0048Z" fill="black"/>
<path opacity="0.5" d="M191.011 12.7824L189.055 8.34949H187.114L190.055 14.8065L188.513 18.2461H190.469L194.784 8.35049H192.824L191.011 12.7824Z" fill="black"/>
<path opacity="0.5" d="M200.443 13.0131C200.345 13.3869 200.126 13.7171 199.821 13.9515C199.516 14.1859 199.142 14.3113 198.758 14.3078C197.689 14.3078 197.131 13.6892 197.131 12.5094V8.35046H195.318V12.7109C195.318 14.611 196.205 15.9349 198.117 15.9349C198.575 15.9562 199.032 15.8558 199.44 15.6436C199.848 15.4315 200.194 15.115 200.443 14.7259V15.7626H202.256V8.35046H200.443V13.0131Z" fill="black"/>
<path opacity="0.5" d="M207.997 8.56278C207.538 8.54132 207.082 8.64169 206.673 8.85386C206.265 9.06603 205.919 9.38255 205.67 9.77177V8.73506H203.857V16.1462H205.67V11.4835C205.768 11.1095 205.987 10.7791 206.292 10.5445C206.598 10.3099 206.971 10.1844 207.355 10.1879C208.425 10.1879 208.982 10.8075 208.982 11.9872V16.1452H210.795V11.7857C210.795 9.88561 209.91 8.56278 207.997 8.56278Z" fill="black"/>
<path opacity="0.5" d="M217.376 9.21194C217.089 8.88319 216.735 8.62055 216.338 8.44185C215.942 8.26314 215.512 8.17256 215.077 8.17624C214.585 8.17413 214.097 8.27569 213.646 8.47443C213.194 8.67316 212.789 8.96469 212.456 9.33036C212.123 9.69603 211.869 10.1278 211.711 10.598C211.553 11.0682 211.494 11.5666 211.537 12.0611C211.494 12.555 211.553 13.0525 211.712 13.5219C211.87 13.9912 212.124 14.422 212.457 14.7865C212.791 15.151 213.196 15.4412 213.647 15.6385C214.098 15.8357 214.585 15.9357 215.077 15.9319C215.511 15.9381 215.94 15.85 216.337 15.6737C216.734 15.4974 217.088 15.2371 217.376 14.9103V15.7606H219.189V5.54468H217.376V9.21194ZM217.376 13.1976C217.194 13.5428 216.919 13.8296 216.584 14.0254C216.248 14.2213 215.865 14.3185 215.477 14.3058C215.083 14.312 214.695 14.2134 214.352 14.0197C214.008 13.8261 213.721 13.5444 213.52 13.2032C213.319 12.8619 213.211 12.4733 213.207 12.0765C213.203 11.6796 213.303 11.2888 213.497 10.9435C213.691 10.5982 213.972 10.3106 214.312 10.1099C214.651 9.90923 215.038 9.80253 215.431 9.80062C215.825 9.79871 216.212 9.90166 216.553 10.099C216.895 10.2964 217.179 10.5812 217.376 10.9247V13.1976Z" fill="black"/>
<path opacity="0.5" d="M226.069 9.21391C225.782 8.88521 225.428 8.6226 225.032 8.4439C224.635 8.2652 224.205 8.17458 223.771 8.1782C223.278 8.1761 222.791 8.27766 222.339 8.47639C221.888 8.67512 221.483 8.96665 221.149 9.33232C220.816 9.69799 220.562 10.1297 220.404 10.6C220.246 11.0702 220.187 11.5685 220.231 12.0631C220.187 12.5569 220.246 13.0545 220.405 13.5238C220.563 13.9932 220.817 14.424 221.151 14.7885C221.484 15.153 221.889 15.4432 222.34 15.6404C222.792 15.8377 223.279 15.9376 223.771 15.9339C224.204 15.94 224.634 15.8519 225.03 15.6756C225.427 15.4993 225.781 15.239 226.069 14.9123V15.7616H227.882V8.35048H226.069V9.21391ZM226.069 13.1995C225.887 13.5446 225.612 13.8314 225.277 14.0272C224.941 14.2231 224.558 14.3203 224.17 14.3078C223.777 14.314 223.389 14.2153 223.045 14.0217C222.701 13.8281 222.415 13.5464 222.214 13.2052C222.013 12.8639 221.905 12.4752 221.901 12.0784C221.897 11.6816 221.997 11.2908 222.191 10.9454C222.385 10.6001 222.666 10.3126 223.005 10.1119C223.345 9.91119 223.731 9.80449 224.124 9.80258C224.518 9.80067 224.905 9.90362 225.247 10.101C225.588 10.2984 225.872 10.5832 226.069 10.9266V13.1995Z" fill="black"/>
<path opacity="0.5" d="M231.135 5.57385H229.279V7.47297H231.135V5.57385Z" fill="black"/>
<path opacity="0.5" d="M231.12 8.72522H229.308V15.7615H231.12V8.72522Z" fill="black"/>
<path opacity="0.5" d="M267.063 6.67493H265.805V8.55188H264.534V9.6168H265.776V13.2266C265.776 15.027 266.619 15.833 268.248 15.833C268.44 15.8301 268.631 15.8109 268.819 15.7756V14.7107H268.591C267.533 14.7107 267.063 14.3359 267.063 13.271V9.61277H268.819V8.55188H267.063V6.67493Z" fill="black"/>
<path opacity="0.5" d="M272.937 8.38678C272.195 8.37539 271.466 8.58695 270.843 8.99455C270.22 9.40215 269.731 9.98736 269.439 10.6757C269.147 11.3641 269.065 12.1244 269.203 12.8601C269.341 13.5957 269.693 14.2734 270.214 14.8068C270.735 15.3402 271.401 15.7053 272.129 15.8556C272.856 16.0059 273.612 15.9346 274.299 15.6508C274.986 15.367 275.574 14.8835 275.988 14.2619C276.402 13.6402 276.623 12.9085 276.623 12.1598C276.649 11.6624 276.571 11.1651 276.396 10.6995C276.22 10.2339 275.951 9.8102 275.604 9.45533C275.257 9.10046 274.841 8.8222 274.382 8.63824C273.923 8.45428 273.431 8.36864 272.937 8.38678ZM272.937 14.7521C272.42 14.7943 271.902 14.6781 271.451 14.4189C271 14.1596 270.638 13.7693 270.41 13.2989C270.183 12.8285 270.102 12.2999 270.177 11.7823C270.253 11.2646 270.481 10.7819 270.833 10.3973C271.185 10.0127 271.644 9.74403 272.15 9.62643C272.655 9.50883 273.185 9.54777 273.668 9.73815C274.151 9.92853 274.567 10.2615 274.859 10.6935C275.152 11.1256 275.309 11.6366 275.309 12.1598C275.336 12.4903 275.295 12.823 275.188 13.1367C275.082 13.4504 274.911 13.7383 274.688 13.9822C274.465 14.2261 274.195 14.4207 273.893 14.5535C273.592 14.6864 273.266 14.7547 272.937 14.7541V14.7521Z" fill="black"/>
<path opacity="0.5" d="M284.802 10.563C285.162 10.3707 285.463 10.0824 285.673 9.72939C285.882 9.3764 285.991 8.97231 285.988 8.56115C285.988 6.94916 284.86 5.96887 282.86 5.96887H279.116V15.7607H283.345C285.573 15.7607 286.742 14.6947 286.742 13.0102C286.763 12.4356 286.579 11.8726 286.223 11.4235C285.866 10.9744 285.362 10.6691 284.802 10.563ZM280.435 7.12144H282.706C284.049 7.12144 284.635 7.69773 284.635 8.64779C284.635 9.59785 284.049 10.1741 282.706 10.1741H280.435V7.12144ZM283.293 14.6101H280.435V11.3166H283.293C284.735 11.3166 285.391 11.9362 285.391 12.9729C285.391 14.0097 284.733 14.6101 283.288 14.6101H283.293Z" fill="black"/>
<path opacity="0.5" d="M292.838 13.257C292.715 13.6952 292.45 14.0792 292.085 14.3479C291.72 14.6166 291.276 14.7547 290.825 14.74C289.61 14.74 288.926 14.0056 288.926 12.6243V8.54797H287.641V12.7532C287.641 14.7118 288.626 15.9218 290.483 15.9218C290.95 15.9408 291.414 15.835 291.828 15.6151C292.242 15.3952 292.591 15.069 292.839 14.6695V15.7636H294.126V8.54797H292.839L292.838 13.257Z" fill="black"/>
<path opacity="0.5" d="M300.63 8.54797L298.501 13.5018L296.23 8.54797H294.858L297.845 14.9415L296.301 18.4123H297.673L302.001 8.54797H300.63Z" fill="black"/>
<path opacity="0.5" d="M238.934 7.04863C239.611 7.02685 240.281 7.20289 240.861 7.55555C241.441 7.90822 241.908 8.42248 242.205 9.03641L243.233 8.33117C242.819 7.5456 242.195 6.89218 241.433 6.44438C240.67 5.99657 239.798 5.77214 238.916 5.79632C237.61 5.83784 236.371 6.3901 235.462 7.33623C234.552 8.28235 234.044 9.54809 234.044 10.8655C234.044 12.1829 234.552 13.4487 235.462 14.3948C236.371 15.3409 237.61 15.8932 238.916 15.9347C239.798 15.9583 240.669 15.7336 241.431 15.2858C242.193 14.8381 242.816 14.185 243.23 13.3999L242.202 12.6946C241.827 13.4325 241.213 14.0187 240.461 14.3555C239.71 14.6923 238.867 14.7593 238.072 14.5455C237.278 14.3317 236.58 13.85 236.095 13.1805C235.61 12.5109 235.367 11.6941 235.406 10.866C235.37 10.3773 235.434 9.88635 235.595 9.42394C235.756 8.96154 236.01 8.53773 236.342 8.17917C236.673 7.82061 237.075 7.53506 237.521 7.3405C237.967 7.14594 238.448 7.04656 238.934 7.04863Z" fill="black"/>
<path opacity="0.5" d="M245.651 5.53748H244.365V15.7615H245.651V5.53748Z" fill="black"/>
<path opacity="0.5" d="M253.386 9.56953C253.832 9.5663 254.27 9.68858 254.651 9.92263C255.032 10.1567 255.341 10.4932 255.542 10.8944L256.5 10.2174C256.191 9.64974 255.733 9.17885 255.176 8.85629C254.619 8.53374 253.985 8.37199 253.343 8.38876C252.367 8.41151 251.439 8.81828 250.756 9.52206C250.074 10.2258 249.692 11.1708 249.692 12.1548C249.692 13.1387 250.074 14.0837 250.756 14.7874C251.439 15.4912 252.367 15.898 253.343 15.9208C253.985 15.9375 254.619 15.7758 255.176 15.4532C255.733 15.1307 256.191 14.6598 256.5 14.0922L255.542 13.4151C255.341 13.8163 255.032 14.1528 254.651 14.3869C254.27 14.6209 253.832 14.7432 253.386 14.74C252.737 14.6934 252.13 14.4009 251.687 13.9213C251.244 13.4417 250.998 12.8106 250.998 12.1553C250.998 11.4999 251.244 10.8688 251.687 10.3892C252.13 9.90965 252.737 9.61711 253.386 9.57054V9.56953Z" fill="black"/>
<path opacity="0.5" d="M247.86 15.9208C248.321 15.9208 248.694 15.5441 248.694 15.0795C248.694 14.6149 248.321 14.2383 247.86 14.2383C247.399 14.2383 247.025 14.6149 247.025 15.0795C247.025 15.5441 247.399 15.9208 247.86 15.9208Z" fill="black"/>
<path opacity="0.5" d="M248.503 5.53748H247.217V13.0584H248.503V5.53748Z" fill="black"/>
<path opacity="0.5" d="M263.033 8.81383V8.78361H261.472L258.674 11.8151V5.53748H257.389V15.7625H258.674V12.4116L261.861 15.7615H263.485V15.7333L259.987 12.1174L263.033 8.81383Z" fill="black"/>
<path d="M14.114 3.13056C14.5777 3.03988 14.8845 3.04291 14.9935 3.15978C15.0328 3.21058 15.0541 3.27317 15.0541 3.3376C15.0541 3.40203 15.0328 3.46461 14.9935 3.51542C14.9374 3.61052 14.8729 3.70023 14.8006 3.78341C10.8611 8.4632 7.85999 15.3696 7.00554 17.3644C6.94058 17.5034 6.87662 17.6404 6.82565 17.7301C6.79302 17.8043 6.7412 17.8684 6.67563 17.9155C6.61006 17.9626 6.53313 17.9912 6.45289 17.9981C6.28581 17.996 6.12321 17.9434 5.98619 17.847C3.37085 16.2169 1.81984 14.2019 1.81984 11.9985C1.81984 8.02898 6.87962 4.62164 14.112 3.13257L14.114 3.13056ZM18.1494 6.11676C18.5192 5.25032 19.1608 3.39654 20.6299 2.65804C21.096 2.43999 21.6021 2.32262 22.1159 2.31348H22.3398C26.1095 2.28431 29.8633 2.80936 33.4827 3.87207C33.5077 3.88215 33.5826 3.91136 33.6026 3.91842C33.9024 4.01916 34.0503 4.15618 34.0503 4.32141C34.047 4.39172 34.0293 4.46058 33.9983 4.52368C33.9673 4.58678 33.9238 4.64277 33.8704 4.68814C33.8225 4.73549 33.7565 4.78889 33.6706 4.86949C31.4976 6.52814 29.0796 7.83229 26.5051 8.73422C24.8041 9.43216 23.052 9.99603 21.2645 10.4208C20.1332 10.6626 15.9378 11.3063 18.1524 6.11374L18.1494 6.11676ZM37.732 6.26184C37.7642 6.18725 37.8157 6.12275 37.8811 6.07508C37.9465 6.0274 38.0234 5.99831 38.1037 5.99082C38.271 5.99368 38.4336 6.04702 38.5704 6.14396C41.1838 7.76904 42.7388 9.79511 42.7388 11.9945C42.7388 15.963 37.677 19.3683 30.4466 20.8604C29.9799 20.951 29.6761 20.951 29.5662 20.8332C29.5268 20.7822 29.5054 20.7195 29.5054 20.6548C29.5054 20.5902 29.5268 20.5275 29.5662 20.4765C29.6209 20.3811 29.6848 20.2913 29.757 20.2085C33.6965 15.5277 36.7006 8.62239 37.5521 6.62756C37.615 6.48752 37.68 6.35251 37.732 6.26385V6.26184ZM26.4721 17.8591C26.1004 18.7265 25.4618 20.5793 23.9897 21.3198C23.5226 21.536 23.0156 21.651 22.5017 21.6573C22.3937 21.6633 22.3158 21.6573 22.2828 21.6573C18.5125 21.6887 14.7577 21.166 11.1369 20.1058L11.019 20.0574C10.7192 19.9567 10.5693 19.8237 10.5693 19.6544C10.5729 19.5838 10.5912 19.5147 10.6231 19.4517C10.6549 19.3887 10.6996 19.3332 10.7542 19.2887C10.8167 19.2244 10.8834 19.1645 10.954 19.1094C13.1249 17.4468 15.5429 16.1407 18.1185 15.2396C19.8197 14.5413 21.5722 13.9774 23.3601 13.553C24.4904 13.3133 28.6857 12.6705 26.4711 17.8581L26.4721 17.8591ZM22.2738 23.5C34.579 23.5 44.5526 18.3497 44.5526 12.0015C44.5526 5.65331 34.584 0.5 22.2788 0.5C9.97365 0.5 0 5.64324 0 12.0025C0 18.3618 9.97565 23.5 22.2788 23.5" fill="#163D7D"/>
<path d="M64.3546 3.78345V10.042H57.3121V3.78345H53.4336V20.2146H57.3131V13.6055H64.3556V20.2146H68.2352V3.78345H64.3546Z" fill="#163D7D"/>
<path d="M82.4624 3.78345L78.405 10.2898L74.3486 3.78345H69.7695L76.4653 14.5243V20.2146H80.3428V14.5243L87.0385 3.78345H82.4624Z" fill="#163D7D"/>
<path d="M99.5176 3.78345V15.826C99.5208 15.9357 99.5017 16.045 99.4615 16.147C99.4213 16.2491 99.3608 16.3418 99.2838 16.4194C99.2068 16.4971 99.1148 16.558 99.0136 16.5986C98.9124 16.6391 98.804 16.6583 98.6952 16.6551H92.4781V3.78345H88.6006V20.2146H100.06C100.507 20.2507 100.956 20.1886 101.377 20.0326C101.798 19.8767 102.18 19.6305 102.497 19.3111C102.814 18.9918 103.059 18.6069 103.214 18.1829C103.369 17.759 103.431 17.3061 103.396 16.8556V3.78345H99.5186" fill="#163D7D"/>
<path d="M118.455 3.78343H106.988V20.2146H110.868V7.34592H117.092C117.2 7.34389 117.307 7.36375 117.407 7.40434C117.508 7.44492 117.599 7.50539 117.675 7.58216C117.752 7.65894 117.813 7.75045 117.853 7.85126C117.894 7.95208 117.915 8.06014 117.913 8.16904V20.2146H121.788V7.14442C121.823 6.69421 121.761 6.24162 121.606 5.81787C121.451 5.39411 121.207 5.00927 120.89 4.68988C120.574 4.37049 120.192 4.12414 119.772 3.96783C119.351 3.81151 118.903 3.74895 118.456 3.78444" fill="#163D7D"/>
<path d="M136.301 8.19411V15.8087C136.304 15.9198 136.284 16.0304 136.244 16.1338C136.203 16.2372 136.143 16.3313 136.065 16.4106C135.988 16.4898 135.896 16.5526 135.794 16.5951C135.692 16.6376 135.583 16.659 135.472 16.658H129.26V7.3458H135.451C135.564 7.34054 135.677 7.35895 135.782 7.39985C135.887 7.44076 135.983 7.50327 136.063 7.58342C136.143 7.66357 136.205 7.7596 136.246 7.86542C136.287 7.97125 136.306 8.08455 136.302 8.19814L136.301 8.19411ZM136.846 3.78835H125.384V20.2145H136.846C137.293 20.2501 137.742 20.1877 138.162 20.0315C138.583 19.8753 138.964 19.6291 139.281 19.3098C139.598 18.9905 139.842 18.6057 139.997 18.182C140.153 17.7583 140.215 17.3057 140.179 16.8555V7.1443C140.214 6.6942 140.151 6.24189 139.996 5.81846C139.841 5.39503 139.596 5.01049 139.28 4.69127C138.963 4.37205 138.582 4.1257 138.162 3.96914C137.742 3.81259 137.293 3.74954 136.846 3.78432" fill="#163D7D"/>
<path d="M154.521 7.34576V11.5772H147.478V8.17694C147.477 8.06738 147.498 7.95871 147.539 7.85722C147.58 7.75574 147.64 7.66346 147.717 7.58576C147.794 7.50806 147.885 7.44647 147.985 7.40458C148.086 7.36268 148.193 7.34132 148.302 7.34173H154.521V7.34576ZM146.937 3.78327C146.49 3.74864 146.042 3.81181 145.622 3.96843C145.202 4.12505 144.821 4.37142 144.504 4.69063C144.188 5.00983 143.943 5.39431 143.788 5.81767C143.633 6.24103 143.57 6.69324 143.605 7.14325V20.2144H147.479V15.1327H154.522V20.2144H158.398V3.78327H146.936" fill="#163D7D"/>
<path d="M165.856 3.78345H162.175V20.2146H166.05V3.78345H165.856Z" fill="#163D7D"/>
</svg>
