<svg width="172" height="24" viewBox="0 0 172 24" fill="none" xmlns="http://www.w3.org/2000/svg">
<path d="M12.3004 4.07273C12.6754 3.99746 12.9231 3.99949 13.0109 4.09714C13.0425 4.13906 13.0596 4.19058 13.0596 4.24362C13.0596 4.29665 13.0425 4.34818 13.0109 4.39009C12.9657 4.46878 12.9135 4.54301 12.855 4.61184C9.67147 8.47714 7.2468 14.1835 6.55799 15.8304C6.50568 15.9453 6.45338 16.0582 6.41292 16.1355C6.38663 16.1969 6.34483 16.2499 6.29188 16.2889C6.23893 16.3279 6.17678 16.3515 6.11193 16.3573C5.97705 16.3558 5.84571 16.3125 5.73496 16.2332C3.62115 14.8854 2.36786 13.2142 2.36786 11.3985C2.36786 8.11909 6.45634 5.30454 12.3004 4.07477V4.07273ZM15.5629 6.54042C15.859 5.82839 16.38 4.29143 17.5662 3.68315C17.9429 3.50292 18.352 3.4059 18.7672 3.39834H18.9488C21.9945 3.37429 25.0274 3.8081 27.9517 4.68609C27.9725 4.69423 28.0317 4.71864 28.0504 4.72373C28.2912 4.80714 28.4116 4.92005 28.4116 5.0594C28.4092 5.11784 28.3951 5.17512 28.3701 5.22765C28.3451 5.28017 28.3099 5.32679 28.2665 5.36456C28.2281 5.40321 28.1748 5.45102 28.1017 5.51408C26.3457 6.88303 24.392 7.9591 22.3119 8.70296C20.9378 9.27959 19.5224 9.7455 18.0784 10.0965C17.1636 10.2999 13.7748 10.8279 15.5639 6.53635L15.5629 6.54042ZM31.383 6.65842C31.4087 6.59743 31.4496 6.54457 31.5017 6.50526C31.5537 6.46594 31.6149 6.44157 31.679 6.43464C31.8142 6.43721 31.9455 6.4815 32.056 6.56178C34.1669 7.90447 35.4231 9.57774 35.4231 11.3944C35.4231 14.6728 31.3336 17.4864 25.4906 18.7182C25.1136 18.7934 24.8679 18.7934 24.779 18.6958C24.7474 18.6537 24.7303 18.602 24.7303 18.5488C24.7303 18.4956 24.7474 18.4439 24.779 18.4018C24.8244 18.3209 24.8776 18.2449 24.9379 18.175C28.1215 14.3097 30.5481 8.60226 31.2359 6.95645C31.2873 6.84049 31.3346 6.72962 31.381 6.65129L31.383 6.65842ZM22.2853 16.2423C21.9892 16.9544 21.4692 18.4913 20.279 19.1016C19.9019 19.2812 19.4924 19.3772 19.0771 19.3834C18.9902 19.3885 18.9261 19.3834 18.9004 19.3834C15.854 19.4073 12.8205 18.9735 9.89549 18.0956L9.7968 18.056C9.55503 17.9736 9.43364 17.8627 9.43364 17.7223C9.43586 17.6634 9.45031 17.6057 9.47602 17.5531C9.50172 17.5004 9.53809 17.4541 9.58266 17.4172C9.63361 17.3643 9.68802 17.315 9.74549 17.2697C11.4992 15.8962 13.4526 14.8172 15.5333 14.0727C16.9077 13.4957 18.3234 13.0298 19.7679 12.6791C20.6807 12.4757 24.0705 11.9498 22.2813 16.2393L22.2853 16.2423ZM18.8975 20.9C28.8389 20.9 36.8975 16.6462 36.8975 11.4015C36.8975 6.15694 28.8389 1.90002 18.8975 1.90002C8.95601 1.90002 0.897461 6.14881 0.897461 11.4015C0.897461 16.6543 8.957 20.9 18.8975 20.9Z" fill="#163D7D"/>
<path opacity="0.5" d="M53.5645 9.44446H48.7555V5.44446H46.8975V15.1565H48.7555V11.0565H53.5645V15.1565H55.4215V5.44546H53.5645V9.44446Z" fill="black"/>
<path opacity="0.5" d="M60.0426 12.2015L58.0856 7.80151H56.1436L59.0866 14.2105L57.5436 17.6245H59.5006L63.8186 7.80251H61.8566L60.0426 12.2015Z" fill="black"/>
<path opacity="0.5" d="M69.4805 12.4305C69.3822 12.8015 69.163 13.1292 68.8577 13.3619C68.5524 13.5946 68.1784 13.719 67.7945 13.7155C66.7245 13.7155 66.1665 13.1015 66.1665 11.9305V7.80249H64.3525V12.1305C64.3525 14.0165 65.2395 15.3305 67.1525 15.3305C67.6117 15.3517 68.0683 15.252 68.4768 15.0414C68.8853 14.8309 69.2315 14.5167 69.4805 14.1305V15.1595H71.2945V7.80249H69.4805V12.4305Z" fill="black"/>
<path opacity="0.5" d="M76.8461 7.63148C76.387 7.61018 75.9303 7.70981 75.5218 7.9204C75.1132 8.13099 74.7671 8.44516 74.5181 8.83148V7.80248H72.7041V15.1585H74.5181V10.5305C74.6163 10.1593 74.8353 9.83134 75.1407 9.59847C75.446 9.36559 75.8201 9.24104 76.2041 9.24448C77.2741 9.24448 77.8321 9.85948 77.8321 11.0305V15.1575H79.6461V10.8305C79.6461 8.94448 78.7601 7.63148 76.8461 7.63148Z" fill="black"/>
<path opacity="0.5" d="M86.4244 8.65746C86.1372 8.33115 85.7832 8.07046 85.3863 7.89309C84.9895 7.71571 84.5591 7.6258 84.1244 7.62946C83.6316 7.62736 83.1437 7.72817 82.6921 7.92542C82.2405 8.12268 81.835 8.41204 81.5016 8.77499C81.1682 9.13794 80.9142 9.56649 80.7559 10.0332C80.5977 10.4999 80.5386 10.9946 80.5824 11.4855C80.5387 11.9756 80.5981 12.4695 80.7566 12.9353C80.9151 13.4012 81.1693 13.8288 81.5029 14.1906C81.8364 14.5524 82.242 14.8404 82.6934 15.0362C83.1449 15.232 83.6323 15.3312 84.1244 15.3275C84.5581 15.3336 84.9881 15.2462 85.385 15.0712C85.7818 14.8962 86.1364 14.6378 86.4244 14.3135V15.1575H88.2384V5.01746H86.4244V8.65746ZM86.4244 12.6135C86.2422 12.9561 85.9676 13.2407 85.6317 13.4352C85.2959 13.6296 84.9123 13.726 84.5244 13.7135C84.1306 13.7196 83.7421 13.6217 83.3983 13.4295C83.0545 13.2373 82.7675 12.9577 82.5665 12.619C82.3655 12.2803 82.2574 11.8945 82.2534 11.5007C82.2494 11.1068 82.3494 10.7189 82.5435 10.3761C82.7375 10.0334 83.0187 9.74794 83.3585 9.54875C83.6983 9.34955 84.0847 9.24365 84.4785 9.24176C84.8724 9.23986 85.2598 9.34205 85.6015 9.53796C85.9432 9.73388 86.2271 10.0166 86.4244 10.3575V12.6135Z" fill="black"/>
<path opacity="0.5" d="M95.1236 8.65945C94.8364 8.3332 94.4823 8.07254 94.0855 7.89517C93.6886 7.7178 93.2583 7.62786 92.8236 7.63145C92.3308 7.62936 91.8429 7.73016 91.3913 7.92742C90.9397 8.12467 90.5342 8.41403 90.2008 8.77699C89.8674 9.13994 89.6134 9.56849 89.4551 10.0352C89.2969 10.5019 89.2378 10.9966 89.2816 11.4875C89.238 11.9776 89.2973 12.4715 89.4558 12.9373C89.6143 13.4032 89.8685 13.8308 90.2021 14.1926C90.5356 14.5544 90.9412 14.8424 91.3926 15.0382C91.8441 15.234 92.3315 15.3332 92.8236 15.3294C93.2573 15.3355 93.6872 15.2481 94.0841 15.0731C94.481 14.8981 94.8355 14.6397 95.1236 14.3154V15.1585H96.9376V7.80245H95.1236V8.65945ZM95.1236 12.6155C94.9413 12.958 94.6666 13.2426 94.3308 13.437C93.995 13.6314 93.6114 13.7279 93.2236 13.7155C92.8298 13.7216 92.4413 13.6237 92.0975 13.4315C91.7537 13.2393 91.4667 12.9597 91.2657 12.621C91.0647 12.2823 90.9567 11.8965 90.9526 11.5027C90.9486 11.1088 91.0486 10.7209 91.2427 10.3781C91.4367 10.0354 91.7179 9.74994 92.0577 9.55074C92.3975 9.35155 92.7839 9.24565 93.1777 9.24375C93.5716 9.24186 93.959 9.34404 94.3007 9.53996C94.6424 9.73587 94.9263 10.0186 95.1236 10.3595V12.6155Z" fill="black"/>
<path opacity="0.5" d="M100.193 5.04639H98.3359V6.93139H100.193V5.04639Z" fill="black"/>
<path opacity="0.5" d="M100.178 8.17432H98.3643V15.1583H100.178V8.17432Z" fill="black"/>
<path opacity="0.5" d="M136.143 6.13965H134.885V8.00265H133.613V9.05965H134.856V12.6426C134.856 14.4296 135.699 15.2296 137.329 15.2296C137.521 15.2267 137.713 15.2077 137.901 15.1726V14.1156H137.672C136.614 14.1156 136.143 13.7436 136.143 12.6866V9.05565H137.901V8.00265H136.143V6.13965Z" fill="black"/>
<path opacity="0.5" d="M142.022 7.83855C141.279 7.82724 140.549 8.03723 139.926 8.4418C139.303 8.84637 138.814 9.42723 138.521 10.1105C138.229 10.7937 138.147 11.5484 138.285 12.2786C138.423 13.0088 138.775 13.6814 139.296 14.2108C139.818 14.7403 140.485 15.1027 141.213 15.2519C141.941 15.4011 142.697 15.3303 143.384 15.0486C144.072 14.7669 144.66 14.287 145.074 13.67C145.489 13.0529 145.71 12.3266 145.71 11.5835C145.735 11.0899 145.658 10.5962 145.482 10.1341C145.307 9.67195 145.037 9.25139 144.69 8.89915C144.343 8.54692 143.927 8.27073 143.468 8.08813C143.008 7.90554 142.516 7.82054 142.022 7.83855ZM142.022 14.1565C141.504 14.1984 140.986 14.0831 140.535 13.8258C140.084 13.5684 139.721 13.181 139.493 12.7141C139.266 12.2472 139.185 11.7226 139.26 11.2088C139.336 10.695 139.564 10.2159 139.916 9.83413C140.269 9.45237 140.728 9.18571 141.234 9.06898C141.74 8.95226 142.269 8.9909 142.753 9.17987C143.237 9.36883 143.652 9.69933 143.945 10.1282C144.238 10.557 144.395 11.0642 144.395 11.5835C144.422 11.9116 144.381 12.2418 144.274 12.5531C144.167 12.8645 143.997 13.1503 143.774 13.3924C143.551 13.6345 143.28 13.8276 142.978 13.9595C142.677 14.0913 142.351 14.1591 142.022 14.1585V14.1565Z" fill="black"/>
<path opacity="0.5" d="M153.893 9.99848C154.254 9.80761 154.555 9.5214 154.765 9.17103C154.974 8.82067 155.083 8.41959 155.08 8.01148C155.08 6.41148 153.951 5.43848 151.95 5.43848H148.204V15.1575H152.435C154.665 15.1575 155.835 14.0995 155.835 12.4275C155.856 11.8571 155.671 11.2983 155.315 10.8525C154.959 10.4068 154.454 10.1037 153.893 9.99848ZM149.524 6.58248H151.796C153.14 6.58248 153.726 7.15448 153.726 8.09748C153.726 9.04048 153.14 9.61248 151.796 9.61248H149.524V6.58248ZM152.383 14.0155H149.524V10.7465H152.383C153.826 10.7465 154.483 11.3615 154.483 12.3905C154.483 13.4195 153.824 14.0155 152.378 14.0155H152.383Z" fill="black"/>
<path opacity="0.5" d="M161.935 12.6725C161.812 13.1075 161.546 13.4886 161.181 13.7554C160.816 14.0221 160.372 14.1591 159.92 14.1445C158.705 14.1445 158.02 13.4155 158.02 12.0445V7.99854H156.734V12.1725C156.734 14.1165 157.72 15.3175 159.578 15.3175C160.046 15.3364 160.51 15.2314 160.925 15.0131C161.339 14.7948 161.688 14.4711 161.936 14.0745V15.1605H163.223V7.99854H161.936L161.935 12.6725Z" fill="black"/>
<path opacity="0.5" d="M169.731 7.99854L167.601 12.9155L165.328 7.99854H163.956L166.944 14.3445L165.4 17.7895H166.772L171.103 7.99854H169.731Z" fill="black"/>
<path opacity="0.5" d="M107.997 6.51038C108.675 6.48875 109.344 6.66348 109.925 7.01353C110.505 7.36357 110.973 7.87401 111.27 8.48338L112.299 7.78338C111.884 7.00365 111.26 6.35509 110.497 5.91062C109.734 5.46614 108.862 5.24338 107.979 5.26738C106.672 5.30858 105.432 5.85675 104.522 6.79584C103.612 7.73493 103.104 8.99125 103.104 10.2989C103.104 11.6065 103.612 12.8628 104.522 13.8019C105.432 14.741 106.672 15.2892 107.979 15.3304C108.861 15.3538 109.733 15.1308 110.495 14.6863C111.258 14.2419 111.881 13.5936 112.296 12.8144L111.267 12.1144C110.892 12.8468 110.277 13.4286 109.525 13.7629C108.773 14.0972 107.929 14.1638 107.134 13.9516C106.339 13.7393 105.641 13.2611 105.156 12.5966C104.67 11.9321 104.427 11.1213 104.467 10.2994C104.43 9.81433 104.495 9.327 104.656 8.86803C104.817 8.40906 105.071 7.9884 105.403 7.63251C105.734 7.27661 106.136 6.99319 106.582 6.80007C107.029 6.60696 107.51 6.50832 107.997 6.51038Z" fill="black"/>
<path opacity="0.5" d="M114.717 5.0105H113.431V15.1585H114.717V5.0105Z" fill="black"/>
<path opacity="0.5" d="M122.457 9.01253C122.904 9.00932 123.342 9.13069 123.723 9.36299C124.105 9.5953 124.413 9.92932 124.615 10.3275L125.573 9.65553C125.264 9.09214 124.806 8.62475 124.249 8.30459C123.691 7.98444 123.057 7.82388 122.414 7.84053C121.438 7.86312 120.509 8.26686 119.826 8.96541C119.144 9.66396 118.762 10.6019 118.762 11.5785C118.762 12.5552 119.144 13.4931 119.826 14.1916C120.509 14.8902 121.438 15.2939 122.414 15.3165C123.057 15.3332 123.691 15.1726 124.249 14.8525C124.806 14.5323 125.264 14.0649 125.573 13.5015L124.615 12.8295C124.413 13.2277 124.105 13.5618 123.723 13.7941C123.342 14.0264 122.904 14.1477 122.457 14.1445C121.808 14.0983 121.201 13.8079 120.758 13.3319C120.314 12.8559 120.068 12.2295 120.068 11.579C120.068 10.9285 120.314 10.3022 120.758 9.82615C121.201 9.35011 121.808 9.05975 122.457 9.01353V9.01253Z" fill="black"/>
<path opacity="0.5" d="M116.928 15.3165C117.389 15.3165 117.763 14.9426 117.763 14.4815C117.763 14.0203 117.389 13.6465 116.928 13.6465C116.467 13.6465 116.093 14.0203 116.093 14.4815C116.093 14.9426 116.467 15.3165 116.928 15.3165Z" fill="black"/>
<path opacity="0.5" d="M117.57 5.0105H116.284V12.4755H117.57V5.0105Z" fill="black"/>
<path opacity="0.5" d="M132.111 8.2625V8.2325H130.549L127.749 11.2415V5.0105H126.463V15.1595H127.749V11.8335L130.938 15.1585H132.563V15.1305L129.063 11.5415L132.111 8.2625Z" fill="black"/>
</svg>
