<svg width="194" height="27" viewBox="0 0 194 27" fill="none" xmlns="http://www.w3.org/2000/svg">
<path d="M16.4889 3.08774C17.031 2.98624 17.3908 2.98624 17.516 3.12226C17.5619 3.18184 17.5869 3.25526 17.5869 3.33085C17.5869 3.40643 17.5619 3.47985 17.516 3.53944C17.4505 3.6511 17.3751 3.75643 17.2906 3.8541C12.6871 9.3485 9.18088 17.4586 8.18483 19.7932C8.10968 19.9567 8.03352 20.117 7.9744 20.2226C7.93636 20.3097 7.87593 20.3848 7.79943 20.4402C7.72293 20.4955 7.63317 20.529 7.53951 20.5373C7.34443 20.5351 7.1545 20.4735 6.99439 20.3606C3.9381 18.4534 2.12637 16.0792 2.12637 13.5C2.12637 8.83996 8.03853 4.84071 16.4899 3.08977L16.4889 3.08774ZM21.2066 6.59368C21.6385 5.57865 22.388 3.39733 24.1046 2.53353C24.6492 2.27709 25.2407 2.13879 25.8412 2.12752H26.1037C30.5079 2.0924 34.8936 2.7079 39.1225 3.95459C39.1525 3.96677 39.2377 4.00128 39.2628 4.00838C39.6105 4.12714 39.7858 4.28752 39.7858 4.48545C39.7819 4.56799 39.7611 4.64881 39.7249 4.72286C39.6887 4.79691 39.6378 4.8626 39.5754 4.91583C39.5193 4.97165 39.4421 5.03865 39.3369 5.12898C36.7983 7.07618 33.9735 8.60726 30.9657 9.6662C28.9784 10.4853 26.9314 11.1471 24.8431 11.6455C23.5214 11.9287 18.6203 12.6849 21.2066 6.58962V6.59368ZM44.0817 6.7632C44.1193 6.67575 44.1794 6.60014 44.2557 6.54425C44.3321 6.48837 44.4218 6.45426 44.5156 6.44549C44.7109 6.44882 44.9008 6.5114 45.0607 6.62515C48.114 8.53241 49.9307 10.9117 49.9307 13.4929C49.9307 18.1509 44.0185 22.1491 35.5672 23.898C35.022 23.9995 34.6653 23.9996 34.538 23.8666C34.4922 23.8068 34.4673 23.7332 34.4673 23.6575C34.4673 23.5818 34.4922 23.5082 34.538 23.4484C34.6021 23.3363 34.6769 23.2309 34.7615 23.1337C39.365 17.6383 42.8782 9.53222 43.8682 7.19154C43.9424 7.02609 44.0175 6.86876 44.0787 6.76421L44.0817 6.7632ZM30.9276 20.3769C30.4937 21.3919 29.7472 23.5732 28.0266 24.437C27.4812 24.6924 26.8889 24.829 26.2881 24.838C26.1618 24.8451 26.0706 24.838 26.0315 24.838C21.6247 24.8735 17.2363 24.258 13.0047 23.0109C12.9767 23.0008 12.8935 22.9662 12.8675 22.9541C12.5177 22.8373 12.3414 22.68 12.3414 22.48C12.3453 22.397 12.3667 22.3158 12.404 22.2418C12.4413 22.1677 12.4937 22.1026 12.5578 22.0507C12.6315 21.9753 12.7102 21.9051 12.7933 21.8406C15.3296 19.889 18.1545 18.356 21.1635 17.2983C23.151 16.4787 25.1984 15.8169 27.2871 15.3189C28.6078 15.0368 33.5089 14.2826 30.9216 20.3728L30.9276 20.3769ZM26.0285 27C40.4051 27 52.0571 20.9544 52.0571 13.5C52.0571 6.04556 40.4051 0 26.0285 0C11.652 0 0 6.03846 0 13.5C0 20.9615 11.655 27 26.0285 27Z" fill="#163D7D"/>
<path d="M75.187 3.854V11.2008H66.9601V3.854H62.4277V23.1397H66.9601V15.3838H75.188V23.1417H79.7173V3.85603H75.187" fill="#163D7D"/>
<path d="M96.3412 3.854L91.6005 11.4922L86.8607 3.854H81.5117L89.3368 16.4628V23.1428H93.8671V16.4628L101.683 3.854H96.3372" fill="#163D7D"/>
<path d="M116.269 3.854V17.9955C116.272 18.1241 116.249 18.252 116.202 18.3714C116.154 18.4909 116.084 18.5993 115.994 18.6903C115.904 18.7813 115.797 18.8529 115.679 18.9008C115.561 18.9487 115.435 18.9718 115.308 18.9689H108.042V3.854H103.512V23.1397H116.9C117.422 23.1822 117.947 23.1094 118.439 22.9264C118.93 22.7434 119.377 22.4545 119.747 22.0796C120.118 21.7048 120.403 21.2529 120.585 20.7553C120.766 20.2577 120.839 19.7261 120.797 19.1973V3.854H116.269Z" fill="#163D7D"/>
<path d="M138.394 3.85407H124.997V23.1398H129.529V8.03095H136.8C136.926 8.02876 137.052 8.05223 137.169 8.09996C137.286 8.14768 137.392 8.2187 137.481 8.3088C137.571 8.3989 137.642 8.50625 137.689 8.62451C137.737 8.74276 137.761 8.86951 137.759 8.99726V23.1428H142.286V7.7985C142.327 7.27004 142.255 6.7388 142.074 6.24139C141.893 5.74397 141.607 5.29222 141.237 4.91728C140.868 4.54234 140.422 4.25312 139.931 4.06957C139.44 3.88602 138.915 3.81249 138.394 3.85407Z" fill="#163D7D"/>
<path d="M159.244 9.03185V17.9642C159.247 18.0947 159.224 18.2245 159.177 18.346C159.13 18.4675 159.059 18.578 158.969 18.6712C158.878 18.7643 158.77 18.838 158.651 18.888C158.532 18.9379 158.404 18.9631 158.276 18.962H151.018V8.03203H158.25C158.382 8.02602 158.513 8.04776 158.636 8.09586C158.759 8.14396 158.871 8.21738 158.964 8.31147C159.057 8.40556 159.13 8.51826 159.179 8.64244C159.227 8.76662 159.249 8.89957 159.244 9.03286V9.03185ZM159.88 3.85617H146.488V23.1419H159.88C160.401 23.1834 160.926 23.1099 161.417 22.9265C161.908 22.743 162.353 22.4541 162.723 22.0794C163.094 21.7047 163.379 21.2533 163.56 20.7561C163.742 20.2589 163.815 19.7279 163.774 19.1995V7.79959C163.814 7.27119 163.741 6.74021 163.56 6.24312C163.378 5.74603 163.093 5.29461 162.723 4.91986C162.353 4.54511 161.907 4.25591 161.416 4.07213C160.926 3.88834 160.401 3.81432 159.88 3.85515" fill="#163D7D"/>
<path d="M180.529 8.032V13.0057H172.301V9.01253C172.3 8.88394 172.324 8.75639 172.371 8.63728C172.419 8.51817 172.49 8.40986 172.579 8.31865C172.669 8.22744 172.775 8.15513 172.893 8.10593C173.01 8.05672 173.136 8.03159 173.263 8.032H180.528H180.529ZM171.666 3.85512C171.145 3.8146 170.621 3.88884 170.13 4.07277C169.64 4.25669 169.195 4.54594 168.825 4.92065C168.455 5.29537 168.17 5.74668 167.989 6.24361C167.807 6.74055 167.734 7.27134 167.774 7.79956V23.1439H172.301V17.1775H180.529V23.1439H185.058V3.85817H171.666" fill="#163D7D"/>
<path d="M193.773 3.854H189.473V23.1397H194V3.854H193.773Z" fill="#163D7D"/>
</svg>
