<svg xmlns="http://www.w3.org/2000/svg" width="14" height="16" viewBox="0 0 14 16" fill="none"><path d="M1.80248 11.0624C1.75848 11.0164 1.71548 10.9698 1.67348 10.9224L1.43948 10.6684H1.45348C0.700044 9.73482 0.217358 8.6123 0.0580414 7.42322C-0.101275 6.23415 0.0688908 5.02415 0.54999 3.92514C1.03109 2.82613 1.80466 1.88028 2.78637 1.1907C3.76808 0.501117 4.92026 0.0942683 6.11731 0.0145026C7.31435 -0.0652632 8.51033 0.185116 9.57485 0.738346C10.6394 1.29158 11.5316 2.12642 12.1543 3.15189C12.7769 4.17735 13.1061 5.35406 13.106 6.55376C13.1059 7.75346 12.7764 8.93011 12.1535 9.95542C10.6158 12.234 8.74462 14.2687 6.60248 15.9914C6.38248 15.9914 2.94148 12.2914 1.80248 11.0624Z" fill="black"/><path d="M6.43745 9.75526C8.27711 9.75526 9.76845 8.26392 9.76845 6.42426C9.76845 4.5846 8.27711 3.09326 6.43745 3.09326C4.59778 3.09326 3.10645 4.5846 3.10645 6.42426C3.10645 8.26392 4.59778 9.75526 6.43745 9.75526Z" fill="white"/></svg>