	<svg width="28" height="24" viewBox="0 0 28 18" fill="none" xmlns="http://www.w3.org/2000/svg" class="MyCarIcon">
					<path d="M13.001 0.496094H15.091L16.851 5.29614L18.611 0.496094H20.701V7.29614H19.14V2.8761L17.55 7.29614H16.15L14.56 2.8761V7.29614H13L13.001 0.496094Z" class="ColBlack" fill="black"></path>
					<path d="M23.8403 4.49609L21.3213 0.5271V0.496094H23.1513L24.6213 2.98712L26.0903 0.496094H27.9203V0.5271L25.4013 4.49609V7.29614H23.8403V4.49609Z" class="ColBlack" fill="black"></path>
					<path d="M19.839 9.36615C19.9454 9.59797 20.0003 9.85003 20 10.1051V16.2821C20 16.5041 19.9119 16.717 19.7549 16.874C19.5979 17.0309 19.385 17.1191 19.163 17.1191H17.801C17.5786 17.1189 17.3653 17.0304 17.208 16.8731C17.0507 16.7158 16.9623 16.5026 16.962 16.2802L16.953 15.2011H4.99298V16.2861C4.99113 16.508 4.90172 16.7201 4.7442 16.8763C4.58668 17.0325 4.37382 17.1201 4.15198 17.1201H2.83899C2.61674 17.1201 2.40362 17.0319 2.24646 16.8747C2.0893 16.7175 2.00098 16.5044 2.00098 16.2821V10.1041C2.00112 9.84975 2.05604 9.59839 2.16199 9.36713L4.92798 3.34711C5.06914 3.03981 5.29548 2.77949 5.58014 2.59692C5.86479 2.41436 6.19583 2.31725 6.534 2.31714H10.805" stroke="black" stroke-width="1.6" stroke-miterlimit="10" class="StrokeBlack"></path>
					<path d="M5.50059 12.4C5.99764 12.4 6.40059 11.997 6.40059 11.5C6.40059 11.0029 5.99764 10.6 5.50059 10.6C5.00353 10.6 4.60059 11.0029 4.60059 11.5C4.60059 11.997 5.00353 12.4 5.50059 12.4Z" stroke="black" stroke-width="1.2" class="StrokeBlack"></path>
					<path d="M16.5006 12.4C16.9976 12.4 17.4006 11.997 17.4006 11.5C17.4006 11.0029 16.9976 10.6 16.5006 10.6C16.0035 10.6 15.6006 11.0029 15.6006 11.5C15.6006 11.997 16.0035 12.4 16.5006 12.4Z" stroke="black" stroke-width="1.2" class="StrokeBlack"></path>
					<path d="M14.001 10.25H8.00098V11.25H14.001V10.25Z" fill="white" class="ColWhite"></path>
					<path d="M8.50098 10.75H13.501H8.50098Z" stroke="black" class="StrokeBlack"></path>
					<path d="M14.001 11.75H8.00098V12.75H14.001V11.75Z" fill="white" class="ColWhite"></path>
					<path d="M8.50098 12.25H13.501H8.50098Z" stroke="black" class="StrokeBlack"></path>
	</svg>