<svg xmlns="http://www.w3.org/2000/svg" width="17" height="17" viewBox="0 0 17 17" fill="none"><path d="M16.3673 14.4526L15.5948 15.2203C15.1039 15.7176 14.493 16.08 13.8212 16.2723C13.1494 16.4646 12.4393 16.4804 11.7596 16.3181C10.3671 15.9435 9.04361 15.3484 7.83943 14.5552C5.69724 13.1746 3.8585 11.3724 2.43522 9.25831C1.69661 8.1726 1.11195 6.98982 0.697925 5.74366C0.465291 5.0259 0.437135 4.25753 0.616601 3.52467C0.796066 2.79181 1.17607 2.1234 1.71402 1.59434L2.61792 0.690442C2.67755 0.630113 2.74856 0.58221 2.82683 0.549521C2.9051 0.516832 2.98906 0.5 3.07388 0.5C3.1587 0.5 3.24268 0.516832 3.32095 0.549521C3.39922 0.58221 3.47022 0.630113 3.52984 0.690442L6.38421 3.5448C6.44454 3.60442 6.49243 3.67542 6.52512 3.75369C6.55781 3.83196 6.57464 3.91594 6.57464 4.00076C6.57464 4.08558 6.55781 4.16956 6.52512 4.24782C6.49243 4.32609 6.44454 4.39709 6.38421 4.45672L4.70781 6.13311C4.47498 6.3631 4.33251 6.66908 4.30633 6.9953C4.28015 7.32152 4.37201 7.64629 4.56518 7.91047C5.85492 9.6745 7.42497 11.2153 9.21292 12.4717C9.47872 12.6565 9.80115 12.7418 10.1236 12.7125C10.446 12.6831 10.7478 12.5411 10.9759 12.3114L12.5962 10.6655C12.6558 10.6051 12.7268 10.5572 12.805 10.5246C12.8833 10.4919 12.9673 10.475 13.0521 10.475C13.1369 10.475 13.2209 10.4919 13.2992 10.5246C13.3774 10.5572 13.4485 10.6051 13.5081 10.6655L16.3673 13.5294C16.4293 13.5892 16.4786 13.6609 16.5123 13.7402C16.5461 13.8196 16.5634 13.9048 16.5634 13.991C16.5634 14.0772 16.5461 14.1625 16.5123 14.2418C16.4786 14.3211 16.4293 14.3928 16.3673 14.4526Z" fill="black"/></svg>