<svg width="474" height="163" xmlns="http://www.w3.org/2000/svg">
 <defs>
  <linearGradient gradientTransform="matrix(70.45130157470703,0,0,-70.45130157470703,12118.058975219727,50653.11796569824)" y2="717.6929" x2="-170.693" y1="717.6929" x1="-171.5299" gradientUnits="userSpaceOnUse" id="svg_43">
   <stop stop-color="#DADADA" offset="0"/>
   <stop stop-color="#878787" offset="0.2427"/>
   <stop stop-color="#DADADA" offset="0.5572"/>
   <stop stop-color="#878787" offset="0.7984"/>
   <stop stop-color="#DADADA" offset="1"/>
  </linearGradient>
  <linearGradient gradientTransform="matrix(1,0,0,1,-178.39999389648438,-190.10000610351562)" y2="270.5317" x2="271.0012" y1="270.5317" x1="211.7477" gradientUnits="userSpaceOnUse" id="svg_42">
   <stop stop-color="#DADADA" offset="0"/>
   <stop stop-color="#878787" offset="0.2427"/>
   <stop stop-color="#DADADA" offset="0.5572"/>
   <stop stop-color="#878787" offset="0.7984"/>
   <stop stop-color="#DADADA" offset="1"/>
  </linearGradient>
  <linearGradient gradientTransform="matrix(40.93939971923828,-149.13619995117188,-149.13619995117188,-40.93939971923828,114140.73280334473,3726.483688354492)" y2="717.3884" x2="-172.0732" y1="717.3884" x1="-172.9095" gradientUnits="userSpaceOnUse" id="svg_41">
   <stop stop-color="#DADADA" offset="0"/>
   <stop stop-color="#878787" offset="0.2427"/>
   <stop stop-color="#DADADA" offset="0.5572"/>
   <stop stop-color="#878787" offset="0.7984"/>
   <stop stop-color="#DADADA" offset="1"/>
  </linearGradient>
  <linearGradient gradientTransform="matrix(40.93939971923828,-149.13619995117188,-149.13619995117188,-40.93939971923828,114116.17030334473,3719.858688354492)" y2="717.1541" x2="-172.8524" y1="717.1541" x1="-172.8524" gradientUnits="userSpaceOnUse" id="svg_40">
   <stop stop-color="#DADADA" offset="0"/>
   <stop stop-color="#878787" offset="0.2427"/>
   <stop stop-color="#DADADA" offset="0.5572"/>
   <stop stop-color="#878787" offset="0.7984"/>
   <stop stop-color="#DADADA" offset="1"/>
  </linearGradient>
  <linearGradient gradientTransform="matrix(40.93939971923828,-149.13619995117188,-149.13619995117188,-40.93939971923828,114116.17030334473,3719.858688354492)" y2="717.1542" x2="-172.8523" y1="717.1542" x1="-172.8524" gradientUnits="userSpaceOnUse" id="svg_39">
   <stop stop-color="#DADADA" offset="0"/>
   <stop stop-color="#878787" offset="0.2427"/>
   <stop stop-color="#DADADA" offset="0.5572"/>
   <stop stop-color="#878787" offset="0.7984"/>
   <stop stop-color="#DADADA" offset="1"/>
  </linearGradient>
  <linearGradient gradientTransform="matrix(40.93939971923828,-149.13619995117188,-149.13619995117188,-40.93939971923828,114116.17030334473,3719.858688354492)" y2="717.1541" x2="-172.8524" y1="717.1541" x1="-172.8524" gradientUnits="userSpaceOnUse" id="svg_38">
   <stop stop-color="#DADADA" offset="0"/>
   <stop stop-color="#878787" offset="0.2427"/>
   <stop stop-color="#DADADA" offset="0.5572"/>
   <stop stop-color="#878787" offset="0.7984"/>
   <stop stop-color="#DADADA" offset="1"/>
  </linearGradient>
  <linearGradient gradientTransform="matrix(1,0,0,1,-178.39999389648438,-190.10000610351562)" y2="273.0573" x2="282.9482" y1="273.0573" x1="223.768" gradientUnits="userSpaceOnUse" id="svg_37">
   <stop stop-color="#DADADA" offset="0"/>
   <stop stop-color="#878787" offset="0.2427"/>
   <stop stop-color="#DADADA" offset="0.5572"/>
   <stop stop-color="#878787" offset="0.7984"/>
   <stop stop-color="#DADADA" offset="1"/>
  </linearGradient>
  <linearGradient gradientTransform="matrix(40.93939971923828,-149.13619995117188,-149.13619995117188,-40.93939971923828,114116.17030334473,3719.858688354492)" y2="717.1541" x2="-172.8524" y1="717.1541" x1="-172.8524" gradientUnits="userSpaceOnUse" id="svg_36">
   <stop stop-color="#DADADA" offset="0"/>
   <stop stop-color="#878787" offset="0.2427"/>
   <stop stop-color="#DADADA" offset="0.5572"/>
   <stop stop-color="#878787" offset="0.7984"/>
   <stop stop-color="#DADADA" offset="1"/>
  </linearGradient>
  <linearGradient gradientTransform="matrix(40.93939971923828,-149.13619995117188,-149.13619995117188,-40.93939971923828,114127.17030334473,3722.858688354492)" y2="717.2278" x2="-172.8525" y1="717.2278" x1="-172.8525" gradientUnits="userSpaceOnUse" id="svg_35">
   <stop stop-color="#DADADA" offset="0"/>
   <stop stop-color="#878787" offset="0.2427"/>
   <stop stop-color="#DADADA" offset="0.5572"/>
   <stop stop-color="#878787" offset="0.7984"/>
   <stop stop-color="#DADADA" offset="1"/>
  </linearGradient>
  <linearGradient gradientTransform="matrix(70.45130157470703,0,0,-70.45130157470703,12118.058975219727,50632.36796569824)" y2="716.7195" x2="-170.7846" y1="716.7195" x1="-170.7846" gradientUnits="userSpaceOnUse" id="svg_34">
   <stop stop-color="#DADADA" offset="0"/>
   <stop stop-color="#878787" offset="0.2427"/>
   <stop stop-color="#DADADA" offset="0.5572"/>
   <stop stop-color="#878787" offset="0.7984"/>
   <stop stop-color="#DADADA" offset="1"/>
  </linearGradient>
  <linearGradient gradientTransform="matrix(40.93939971923828,-149.13619995117188,-149.13619995117188,-40.93939971923828,114116.17030334473,3719.858688354492)" y2="717.1541" x2="-172.8524" y1="717.1541" x1="-172.8524" gradientUnits="userSpaceOnUse" id="svg_33">
   <stop stop-color="#DADADA" offset="0"/>
   <stop stop-color="#878787" offset="0.2427"/>
   <stop stop-color="#DADADA" offset="0.5572"/>
   <stop stop-color="#878787" offset="0.7984"/>
   <stop stop-color="#DADADA" offset="1"/>
  </linearGradient>
  <linearGradient gradientTransform="matrix(70.45130157470703,0,0,-70.45130157470703,12118.058975219727,50632.36796569824)" y2="716.7195" x2="-170.7846" y1="716.7195" x1="-170.7847" gradientUnits="userSpaceOnUse" id="svg_32">
   <stop stop-color="#DADADA" offset="0"/>
   <stop stop-color="#878787" offset="0.2427"/>
   <stop stop-color="#DADADA" offset="0.5572"/>
   <stop stop-color="#878787" offset="0.7984"/>
   <stop stop-color="#DADADA" offset="1"/>
  </linearGradient>
  <linearGradient gradientTransform="matrix(1,0,0,1,-178.39999389648438,-190.10000610351562)" y2="293.1377" x2="245.7188" y1="319.4152" x1="259.5809" gradientUnits="userSpaceOnUse" id="svg_31">
   <stop stop-color="#DADADA" offset="0"/>
   <stop stop-color="#878787" offset="0.2427"/>
   <stop stop-color="#DADADA" offset="0.5572"/>
   <stop stop-color="#878787" offset="0.7984"/>
   <stop stop-color="#DADADA" offset="1"/>
  </linearGradient>
  <linearGradient gradientTransform="matrix(40.93939971923828,-149.13619995117188,-149.13619995117188,-40.93939971923828,114116.17030334473,3719.858688354492)" y2="717.1543" x2="-172.8523" y1="717.1543" x1="-172.8523" gradientUnits="userSpaceOnUse" id="svg_30">
   <stop stop-color="#DADADA" offset="0"/>
   <stop stop-color="#878787" offset="0.2427"/>
   <stop stop-color="#DADADA" offset="0.5572"/>
   <stop stop-color="#878787" offset="0.7984"/>
   <stop stop-color="#DADADA" offset="1"/>
  </linearGradient>
  <linearGradient gradientTransform="matrix(1,0,0,1,-178.39999389648438,-190.10000610351562)" y2="291.1701" x2="244.6803" y1="321.5313" x1="260.6966" gradientUnits="userSpaceOnUse" id="svg_29">
   <stop stop-color="#DADADA" offset="0"/>
   <stop stop-color="#878787" offset="0.2427"/>
   <stop stop-color="#DADADA" offset="0.5572"/>
   <stop stop-color="#878787" offset="0.7984"/>
   <stop stop-color="#DADADA" offset="1"/>
  </linearGradient>
  <linearGradient gradientTransform="matrix(40.93939971923828,-149.13619995117188,-149.13619995117188,-40.93939971923828,114116.17030334473,3719.858688354492)" y2="717.1544" x2="-172.8522" y1="717.1544" x1="-172.8523" gradientUnits="userSpaceOnUse" id="svg_28">
   <stop stop-color="#DADADA" offset="0"/>
   <stop stop-color="#878787" offset="0.2427"/>
   <stop stop-color="#DADADA" offset="0.5572"/>
   <stop stop-color="#878787" offset="0.7984"/>
   <stop stop-color="#DADADA" offset="1"/>
  </linearGradient>
  <linearGradient gradientTransform="matrix(1,0,0,1,-178.39999389648438,-190.10000610351562)" y2="289.5849" x2="243.8378" y1="320.3998" x1="260.0934" gradientUnits="userSpaceOnUse" id="svg_27">
   <stop stop-color="#DADADA" offset="0"/>
   <stop stop-color="#878787" offset="0.2427"/>
   <stop stop-color="#DADADA" offset="0.5572"/>
   <stop stop-color="#878787" offset="0.7984"/>
   <stop stop-color="#DADADA" offset="1"/>
  </linearGradient>
  <linearGradient gradientTransform="matrix(40.93939971923828,-149.13619995117188,-149.13619995117188,-40.93939971923828,114116.17030334473,3719.858688354492)" y2="717.1543" x2="-172.8523" y1="717.1543" x1="-172.8523" gradientUnits="userSpaceOnUse" id="svg_26">
   <stop stop-color="#DADADA" offset="0"/>
   <stop stop-color="#878787" offset="0.2427"/>
   <stop stop-color="#DADADA" offset="0.5572"/>
   <stop stop-color="#878787" offset="0.7984"/>
   <stop stop-color="#DADADA" offset="1"/>
  </linearGradient>
  <linearGradient gradientTransform="matrix(40.93939971923828,-149.13619995117188,-149.13619995117188,-40.93939971923828,114116.17030334473,3719.858688354492)" y2="717.1543" x2="-172.8523" y1="717.1543" x1="-172.8523" gradientUnits="userSpaceOnUse" id="svg_25">
   <stop stop-color="#DADADA" offset="0"/>
   <stop stop-color="#878787" offset="0.2427"/>
   <stop stop-color="#DADADA" offset="0.5572"/>
   <stop stop-color="#878787" offset="0.7984"/>
   <stop stop-color="#DADADA" offset="1"/>
  </linearGradient>
  <linearGradient gradientTransform="matrix(1,0,0,1,-178.39999389648438,-190.10000610351562)" y2="305.7085" x2="252.3486" y1="322.0708" x1="260.9801" gradientUnits="userSpaceOnUse" id="svg_24">
   <stop stop-color="#DADADA" offset="0"/>
   <stop stop-color="#878787" offset="0.2427"/>
   <stop stop-color="#DADADA" offset="0.5572"/>
   <stop stop-color="#878787" offset="0.7984"/>
   <stop stop-color="#DADADA" offset="1"/>
  </linearGradient>
  <linearGradient gradientTransform="matrix(1,0,0,1,-178.39999389648438,-190.10000610351562)" y2="277.994" x2="264.4945" y1="277.994" x1="209.0788" gradientUnits="userSpaceOnUse" id="svg_23">
   <stop stop-color="#DADADA" offset="0"/>
   <stop stop-color="#878787" offset="0.2427"/>
   <stop stop-color="#DADADA" offset="0.5572"/>
   <stop stop-color="#878787" offset="0.7984"/>
   <stop stop-color="#DADADA" offset="1"/>
  </linearGradient>
  <linearGradient gradientTransform="matrix(1,0,0,1,-178.39999389648438,-190.10000610351562)" y2="328.6252" x2="264.44" y1="328.6252" x1="264.44" gradientUnits="userSpaceOnUse" id="svg_22">
   <stop stop-color="#DADADA" offset="0"/>
   <stop stop-color="#878787" offset="0.2427"/>
   <stop stop-color="#DADADA" offset="0.5572"/>
   <stop stop-color="#878787" offset="0.7984"/>
   <stop stop-color="#DADADA" offset="1"/>
  </linearGradient>
  <linearGradient gradientTransform="matrix(1,0,0,1,-178.39999389648438,-190.10000610351562)" y2="328.6252" x2="264.44" y1="328.6252" x1="264.44" gradientUnits="userSpaceOnUse" id="svg_21">
   <stop stop-color="#DADADA" offset="0"/>
   <stop stop-color="#878787" offset="0.2427"/>
   <stop stop-color="#DADADA" offset="0.5572"/>
   <stop stop-color="#878787" offset="0.7984"/>
   <stop stop-color="#DADADA" offset="1"/>
  </linearGradient>
  <linearGradient gradientTransform="matrix(40.93939971923828,-149.13619995117188,-149.13619995117188,-40.93939971923828,114116.17030334473,3719.858688354492)" y2="717.1543" x2="-172.8523" y1="717.1543" x1="-172.8523" gradientUnits="userSpaceOnUse" id="svg_20">
   <stop stop-color="#DADADA" offset="0"/>
   <stop stop-color="#878787" offset="0.2427"/>
   <stop stop-color="#DADADA" offset="0.5572"/>
   <stop stop-color="#878787" offset="0.7984"/>
   <stop stop-color="#DADADA" offset="1"/>
  </linearGradient>
  <linearGradient gradientTransform="matrix(1,0,0,1,-178.39999389648438,-190.10000610351562)" y2="283.5679" x2="240.6693" y1="321.907" x1="260.8942" gradientUnits="userSpaceOnUse" id="svg_19">
   <stop stop-color="#DADADA" offset="0"/>
   <stop stop-color="#878787" offset="0.2427"/>
   <stop stop-color="#DADADA" offset="0.5572"/>
   <stop stop-color="#878787" offset="0.7984"/>
   <stop stop-color="#DADADA" offset="1"/>
  </linearGradient>
  <linearGradient gradientTransform="matrix(1,0,0,1,-178.39999389648438,-190.10000610351562)" y2="328.6235" x2="264.4395" y1="328.6235" x1="221.7822" gradientUnits="userSpaceOnUse" id="svg_18">
   <stop stop-color="#DADADA" offset="0"/>
   <stop stop-color="#878787" offset="0.2427"/>
   <stop stop-color="#DADADA" offset="0.5572"/>
   <stop stop-color="#878787" offset="0.7984"/>
   <stop stop-color="#DADADA" offset="1"/>
  </linearGradient>
  <linearGradient gradientTransform="matrix(40.93939971923828,-149.13619995117188,-149.13619995117188,-40.93939971923828,114116.17030334473,3719.858688354492)" y2="717.1543" x2="-172.8523" y1="717.1543" x1="-172.8523" gradientUnits="userSpaceOnUse" id="svg_17">
   <stop stop-color="#DADADA" offset="0"/>
   <stop stop-color="#878787" offset="0.2427"/>
   <stop stop-color="#DADADA" offset="0.5572"/>
   <stop stop-color="#878787" offset="0.7984"/>
   <stop stop-color="#DADADA" offset="1"/>
  </linearGradient>
  <linearGradient gradientTransform="matrix(40.93939971923828,-149.13619995117188,-149.13619995117188,-40.93939971923828,114116.17030334473,3719.858688354492)" y2="717.1543" x2="-172.8523" y1="717.1543" x1="-172.8523" gradientUnits="userSpaceOnUse" id="svg_16">
   <stop stop-color="#DADADA" offset="0"/>
   <stop stop-color="#878787" offset="0.2427"/>
   <stop stop-color="#DADADA" offset="0.5572"/>
   <stop stop-color="#878787" offset="0.7984"/>
   <stop stop-color="#DADADA" offset="1"/>
  </linearGradient>
  <linearGradient gradientTransform="matrix(1,0,0,1,-178.39999389648438,-190.10000610351562)" y2="328.6211" x2="264.4348" y1="328.6227" x1="264.4356" gradientUnits="userSpaceOnUse" id="svg_15">
   <stop stop-color="#DADADA" offset="0"/>
   <stop stop-color="#878787" offset="0.2427"/>
   <stop stop-color="#DADADA" offset="0.5572"/>
   <stop stop-color="#878787" offset="0.7984"/>
   <stop stop-color="#DADADA" offset="1"/>
  </linearGradient>
  <linearGradient gradientTransform="matrix(1,0,0,1,-178.39999389648438,-190.10000610351562)" y2="328.6218" x2="269.9321" y1="328.6218" x1="258.9372" gradientUnits="userSpaceOnUse" id="svg_14">
   <stop stop-color="#DADADA" offset="0"/>
   <stop stop-color="#878787" offset="0.2427"/>
   <stop stop-color="#DADADA" offset="0.5572"/>
   <stop stop-color="#878787" offset="0.7984"/>
   <stop stop-color="#DADADA" offset="1"/>
  </linearGradient>
  <linearGradient gradientTransform="matrix(40.93939971923828,-149.13619995117188,-149.13619995117188,-40.93939971923828,114116.17030334473,3719.858688354492)" y2="717.1544" x2="-172.8522" y1="717.1544" x1="-172.8523" gradientUnits="userSpaceOnUse" id="svg_13">
   <stop stop-color="#DADADA" offset="0"/>
   <stop stop-color="#878787" offset="0.2427"/>
   <stop stop-color="#DADADA" offset="0.5572"/>
   <stop stop-color="#878787" offset="0.7984"/>
   <stop stop-color="#DADADA" offset="1"/>
  </linearGradient>
  <linearGradient gradientTransform="matrix(1,0,0,1,-178.39999389648438,-190.10000610351562)" y2="328.6175" x2="264.44" y1="328.6175" x1="211.1185" gradientUnits="userSpaceOnUse" id="svg_12">
   <stop stop-color="#DADADA" offset="0"/>
   <stop stop-color="#878787" offset="0.2427"/>
   <stop stop-color="#DADADA" offset="0.5572"/>
   <stop stop-color="#878787" offset="0.7984"/>
   <stop stop-color="#DADADA" offset="1"/>
  </linearGradient>
  <linearGradient gradientTransform="matrix(40.93939971923828,-149.13619995117188,-149.13619995117188,-40.93939971923828,114116.17030334473,3719.858688354492)" y2="717.1544" x2="-172.8523" y1="717.1544" x1="-172.8523" gradientUnits="userSpaceOnUse" id="svg_11">
   <stop stop-color="#DADADA" offset="0"/>
   <stop stop-color="#878787" offset="0.2427"/>
   <stop stop-color="#DADADA" offset="0.5572"/>
   <stop stop-color="#878787" offset="0.7984"/>
   <stop stop-color="#DADADA" offset="1"/>
  </linearGradient>
  <linearGradient gradientTransform="matrix(40.93939971923828,-149.13619995117188,-149.13619995117188,-40.93939971923828,114116.17030334473,3719.858688354492)" y2="717.1544" x2="-172.8523" y1="717.1544" x1="-172.8523" gradientUnits="userSpaceOnUse" id="svg_10">
   <stop stop-color="#DADADA" offset="0"/>
   <stop stop-color="#878787" offset="0.2427"/>
   <stop stop-color="#DADADA" offset="0.5572"/>
   <stop stop-color="#878787" offset="0.7984"/>
   <stop stop-color="#DADADA" offset="1"/>
  </linearGradient>
  <linearGradient gradientTransform="matrix(1,0,0,1,-178.39999389648438,-190.10000610351562)" y2="295.6064" x2="247.0171" y1="321.6669" x1="260.7646" gradientUnits="userSpaceOnUse" id="svg_9">
   <stop stop-color="#DADADA" offset="0"/>
   <stop stop-color="#878787" offset="0.2427"/>
   <stop stop-color="#DADADA" offset="0.5572"/>
   <stop stop-color="#878787" offset="0.7984"/>
   <stop stop-color="#DADADA" offset="1"/>
  </linearGradient>
  <linearGradient gradientTransform="matrix(40.93939971923828,-149.13619995117188,-149.13619995117188,-40.93939971923828,114116.17030334473,3719.858688354492)" y2="717.1544" x2="-172.8523" y1="717.1544" x1="-172.8523" gradientUnits="userSpaceOnUse" id="svg_8">
   <stop stop-color="#DADADA" offset="0"/>
   <stop stop-color="#878787" offset="0.2427"/>
   <stop stop-color="#DADADA" offset="0.5572"/>
   <stop stop-color="#878787" offset="0.7984"/>
   <stop stop-color="#DADADA" offset="1"/>
  </linearGradient>
  <linearGradient gradientTransform="matrix(1,0,0,1,-178.39999389648438,-190.10000610351562)" y2="328.6202" x2="280.3734" y1="328.6202" x1="248.488" gradientUnits="userSpaceOnUse" id="svg_7">
   <stop stop-color="#DADADA" offset="0"/>
   <stop stop-color="#878787" offset="0.2427"/>
   <stop stop-color="#DADADA" offset="0.5572"/>
   <stop stop-color="#878787" offset="0.7984"/>
   <stop stop-color="#DADADA" offset="1"/>
  </linearGradient>
  <linearGradient gradientTransform="matrix(1,0,0,1,-178.39999389648438,-190.10000610351562)" y2="231.9554" x2="197.1636" y1="341.5766" x1="245.7421" gradientUnits="userSpaceOnUse" id="svg_6">
   <stop stop-color="#DADADA" offset="0"/>
   <stop stop-color="#878787" offset="0.2427"/>
   <stop stop-color="#DADADA" offset="0.5572"/>
   <stop stop-color="#878787" offset="0.7984"/>
   <stop stop-color="#DADADA" offset="1"/>
  </linearGradient>
  <linearGradient gradientTransform="matrix(1,0,0,1,-178.39999389648438,-190.10000610351562)" y2="271.8017" x2="297.9146" y1="271.8017" x1="178.4522" gradientUnits="userSpaceOnUse" id="svg_5">
   <stop stop-color="#DADADA" offset="0"/>
   <stop stop-color="#878787" offset="0.2427"/>
   <stop stop-color="#DADADA" offset="0.5572"/>
   <stop stop-color="#878787" offset="0.7984"/>
   <stop stop-color="#DADADA" offset="1"/>
  </linearGradient>
  <linearGradient gradientTransform="matrix(1,0,0,1,-178.39999389648438,-190.10000610351562)" y2="261.6034" x2="261.4839" y1="261.6034" x1="212.5043" gradientUnits="userSpaceOnUse" id="svg_4">
   <stop stop-color="#DADADA" offset="0"/>
   <stop stop-color="#878787" offset="0.2427"/>
   <stop stop-color="#DADADA" offset="0.5572"/>
   <stop stop-color="#878787" offset="0.7984"/>
   <stop stop-color="#DADADA" offset="1"/>
  </linearGradient>
  <linearGradient gradientTransform="matrix(1,0,0,1,-178.39999389648438,-190.10000610351562)" y2="261.7624" x2="266.6596" y1="261.7624" x1="216.0732" gradientUnits="userSpaceOnUse" id="svg_3">
   <stop stop-color="#DADADA" offset="0"/>
   <stop stop-color="#878787" offset="0.2427"/>
   <stop stop-color="#DADADA" offset="0.5572"/>
   <stop stop-color="#878787" offset="0.7984"/>
   <stop stop-color="#DADADA" offset="1"/>
  </linearGradient>
  <linearGradient gradientTransform="matrix(1,0,0,1,-178.39999389648438,-190.10000610351562)" y2="335.8227" x2="238.1848" y1="201.5321" x1="238.1848" gradientUnits="userSpaceOnUse" id="svg_2">
   <stop stop-color="#DADADA" offset="0"/>
   <stop stop-color="#878787" offset="0.2427"/>
   <stop stop-color="#DADADA" offset="0.5572"/>
   <stop stop-color="#878787" offset="0.7984"/>
   <stop stop-color="#DADADA" offset="1"/>
  </linearGradient>
 </defs>
 <g>
  <title>Layer 1</title>
  <g>
   <g>
    <path fill="#910C32" d="m3.50001,29.39999c0,45.1 23.2,113.5 56.8,131.5c33.5,-18 56.8,-86.4 56.8,-131.5l-56.6,-25.3l-57,25.3z" class="st0"/>
    <polygon fill="none" points="86.10000610351562,138.6000213623047 86.10000610351562,138.6000213623047 86.10000610351562,138.49998474121094 " class="st1"/>
    <polygon fill="none" points="86.10000610351562,138.49998474121094 86.10000610351562,138.6000213623047 86.10000610351562,138.6000213623047 " class="st1"/>
    <path fill="url(#svg_43)" d="m80.10001,71.09999c-0.3,1.5 -0.4,3 -0.6,4.5c-0.2,1.5 -0.3,3 -0.5,4.6c-0.3,3.1 -0.5,6.2 -0.5,9.4c-0.1,3.1 0,6.3 0.1,9.4c0.1,3.1 0.3,6.1 0.6,9c0.6,5.8 1.5,11.2 2.4,15.8c1,4.6 2,8.3 2.9,10.9c0.4,1.3 0.8,2.3 1.1,3c0,0 -16.1,-48 5.6,-92.2l-3,-1.4c-0.1,0.2 -0.1,0.3 -0.2,0.5c-0.5,1.3 -1.3,2.9 -1.9,4.7c-0.3,0.9 -0.7,1.9 -1.1,2.9c-0.3,1 -0.7,2.1 -1.1,3.3c-0.5,1.6 -1,3.3 -1.5,5.1l1.3,0.6l-1.3,-0.6c-0.2,0.8 -0.4,1.6 -0.6,2.4c-0.6,2.3 -1.2,5.1 -1.7,8.1z" class="st2"/>
    <path fill="url(#svg_42)" d="m49.40001,45.49999c-0.1,-5.8 0,-11.8 0.4,-18.1l-3,-1.4c-0.1,0.8 -0.1,1.8 -0.2,2.9c-0.1,1.7 -0.1,3.8 -0.2,6.2c0,2.4 0,5.1 0.2,8.1c0,0.4 0,0.7 0.1,1.1c0.1,2.6 0.3,5.5 0.6,8.4c0.2,1.7 0.3,3.4 0.6,5.2c0.2,1.8 0.5,3.6 0.8,5.4c0.3,1.8 0.6,3.7 1,5.5c0.4,1.9 0.7,3.7 1.2,5.6c0.4,1.9 0.9,3.8 1.4,5.7c0.3,0.9 0.5,1.9 0.8,2.8l0.9,2.8c1.2,3.7 2.5,7.4 3.9,11c0.7,1.8 1.5,3.5 2.3,5.3c0.8,1.7 1.6,3.4 2.4,5c0.9,1.6 1.7,3.2 2.6,4.8c0.9,1.5 1.8,3 2.6,4.4c0.9,1.4 1.8,2.8 2.7,4.1c0.9,1.3 1.8,2.5 2.7,3.7c0.4,0.6 0.8,1.2 1.3,1.7c0.4,0.5 0.9,1.1 1.3,1.6c0.8,1 1.6,2 2.4,2.9c1.6,1.8 2.9,3.3 4.1,4.5c0,0 0.1,0.1 0.1,0.1c-9,-9.7 -31.7,-39.2 -33,-89.3z"/>
    <path fill="url(#svg_41)" d="m91.20001,45.29999c-21.7,44.2 -5.6,92.2 -5.6,92.2c0.3,0.7 0.5,1 0.5,1s-0.1,-0.4 -0.4,-1c-0.2,-0.7 -0.6,-1.7 -0.9,-3c-0.7,-2.6 -1.5,-6.4 -2.1,-11c-0.6,-4.6 -1.1,-10 -1.3,-15.8c-0.1,-2.9 -0.1,-5.9 0,-8.9c0.1,-3 0.3,-6.1 0.6,-9.1c0.3,-3.1 0.7,-6.1 1.1,-9.1c0.2,-1.5 0.5,-3 0.8,-4.4c0.3,-1.4 0.6,-2.9 0.9,-4.3c0.7,-2.8 1.4,-5.4 2.2,-7.9c0.8,-2.5 1.6,-4.8 2.4,-6.9c0.4,-1 0.8,-2 1.2,-3c0.4,-0.9 0.8,-1.8 1.2,-2.7c0.8,-1.7 1.5,-3.1 2.1,-4.2c0.1,-0.2 0.2,-0.4 0.3,-0.6l-3,-1.3z"/>
    <rect fill="url(#svg_40)" height="0" width="0" y="138.49999" x="86.10001"/>
    <path fill="url(#svg_39)" d="m86.00001,138.49999l0,0l0,0l0,0l0,0l0,0c0.1,0 0,0 0,0z"/>
    <rect fill="url(#svg_38)" height="0" width="0" y="138.49999" x="86.10001"/>
    <path fill="url(#svg_37)" d="m82.50001,134.59999c-1.1,-1.3 -2.4,-2.9 -3.9,-4.7c-0.7,-0.9 -1.4,-2 -2.2,-3c-0.4,-0.5 -0.8,-1.1 -1.2,-1.6c-0.4,-0.6 -0.8,-1.2 -1.2,-1.8c-0.8,-1.2 -1.6,-2.5 -2.4,-3.8c-0.8,-1.3 -1.6,-2.7 -2.5,-4.2c-0.8,-1.5 -1.6,-3 -2.4,-4.5c-0.8,-1.6 -1.5,-3.2 -2.3,-4.8c-0.7,-1.7 -1.4,-3.4 -2.2,-5.1c-0.6,-1.7 -1.3,-3.5 -2,-5.3c-1.2,-3.6 -2.4,-7.3 -3.3,-11l-0.7,-2.8c-0.2,-0.9 -0.4,-1.9 -0.6,-2.8c-0.4,-1.9 -0.8,-3.7 -1.1,-5.6c-0.4,-1.9 -0.6,-3.7 -0.9,-5.5c-0.2,-1.8 -0.5,-3.6 -0.7,-5.4c-0.2,-1.8 -0.4,-3.5 -0.5,-5.3c-0.1,-1.7 -0.2,-3.4 -0.3,-5.1c-0.1,-2 -0.1,-3.9 -0.2,-5.7c0,-1.2 0,-2.4 0,-3.5c0,-2.9 0.1,-5.5 0.2,-7.8c0.1,-2.3 0.3,-4.3 0.4,-6c0,-0.2 0,-0.4 0.1,-0.6l-2.8,-1.3c-0.5,6.3 -0.6,12.3 -0.4,18.1c1.3,50.1 23.9,79.6 33,89.4c2.2,2.2 3.4,3.4 3.6,3.6l0,0c-0.1,-0.1 -1.4,-1.5 -3.5,-3.9z"/>
    <rect fill="url(#svg_36)" height="0" width="0" y="138.49999" x="86.10001"/>
    <rect fill="url(#svg_35)" height="0" width="0" y="138.49999" x="86.10001"/>
    <polygon fill="url(#svg_34)" points="86.10000610351562,138.49998474121094 86.10000610351562,138.6000213623047 86.10000610351562,138.49998474121094 "/>
    <polygon fill="url(#svg_33)" points="86.10000610351562,138.49998474121094 86.10000610351562,138.49998474121094 86.10000610351562,138.49998474121094 86.10000610351562,138.49998474121094 86.10000610351562,138.49998474121094 "/>
    <polygon fill="url(#svg_32)" points="86.10000610351562,138.49998474121094 86.10000610351562,138.49998474121094 86.10000610351562,138.49998474121094 86.10000610351562,138.49998474121094 86.10000610351562,138.49998474121094 "/>
    <polygon fill="url(#svg_31)" points="86,138.49998474121094 86,138.49998474121094 86,138.49998474121094 "/>
    <polygon fill="url(#svg_30)" points="86,138.49998474121094 86,138.49998474121094 86,138.49998474121094 "/>
    <polygon fill="url(#svg_29)" points="86,138.49998474121094 86,138.49998474121094 86,138.49998474121094 "/>
    <polygon fill="url(#svg_28)" points="86,138.49998474121094 86,138.49998474121094 86,138.49998474121094 "/>
    <polygon fill="url(#svg_27)" points="86,138.49998474121094 86,138.49998474121094 86,138.49998474121094 "/>
    <polygon fill="url(#svg_26)" points="86,138.49998474121094 86,138.49998474121094 86,138.49998474121094 "/>
    <polygon fill="url(#svg_25)" points="86,138.49998474121094 86,138.49998474121094 86,138.49998474121094 "/>
    <polygon fill="url(#svg_24)" points="86,138.49998474121094 86,138.49998474121094 86,138.49998474121094 "/>
    <path fill="url(#svg_23)" d="m86.00001,138.49999l0,0c-0.7,-0.5 -46.8,-33.4 -50.9,-99.4l-4,-1.8c5.6,68.9 54.4,100.9 54.9,101.2z"/>
    <polygon fill="url(#svg_22)" points="86,138.49998474121094 86,138.49998474121094 86,138.49998474121094 "/>
    <polygon fill="url(#svg_21)" points="86,138.49998474121094 86,138.49998474121094 86,138.49998474121094 "/>
    <polygon fill="url(#svg_20)" points="86,138.49998474121094 86,138.49998474121094 86,138.49998474121094 86,138.49998474121094 "/>
    <polygon fill="url(#svg_19)" points="86,138.49998474121094 86,138.49998474121094 86,138.49998474121094 86,138.49998474121094 "/>
    <polygon fill="url(#svg_18)" points="86,138.49998474121094 86,138.49998474121094 86,138.49998474121094 86,138.49998474121094 "/>
    <polygon fill="url(#svg_17)" points="86,138.49998474121094 86,138.49998474121094 86,138.49998474121094 "/>
    <polygon fill="url(#svg_16)" points="86,138.49998474121094 86,138.49998474121094 86,138.49998474121094 "/>
    <polygon fill="url(#svg_15)" points="86,138.49998474121094 86,138.49998474121094 86,138.49998474121094 "/>
    <polygon fill="url(#svg_14)" points="86,138.49998474121094 86,138.49998474121094 86,138.49998474121094 "/>
    <polygon fill="url(#svg_13)" points="86,138.49998474121094 86,138.49998474121094 86,138.49998474121094 86,138.49998474121094 "/>
    <polygon fill="url(#svg_12)" points="86,138.49998474121094 86,138.49998474121094 86,138.49998474121094 86,138.49998474121094 "/>
    <polygon fill="url(#svg_11)" points="86,138.49998474121094 86,138.49998474121094 86,138.49998474121094 "/>
    <polygon fill="url(#svg_10)" points="86,138.49998474121094 86,138.49998474121094 86,138.49998474121094 "/>
    <polygon fill="url(#svg_9)" points="86,138.49998474121094 86,138.49998474121094 86,138.49998474121094 "/>
    <polygon fill="url(#svg_8)" points="86,138.49998474121094 86,138.49998474121094 86,138.49998474121094 "/>
    <polygon fill="url(#svg_7)" points="86,138.49998474121094 86,138.49998474121094 86,138.49998474121094 "/>
    <path fill="url(#svg_6)" d="m42.30001,88.89999c17.6,34.3 43.4,49.4 43.7,49.6l0,0c-0.6,-0.4 -49.3,-32.3 -54.9,-101.2l-4.1,-1.8c1.7,17.9 6.1,33.3 11.8,46.3c0.4,1.3 1.2,4.5 1.8,7.5c0.2,1.1 0.4,2.2 0.7,3.4c0.3,2 0.6,4.1 0.8,6.2c0.2,2.1 0.4,4.3 0.5,6.4c0,1.1 0,2.2 0.1,3.2c0,1.1 0,2.1 -0.1,3.2c-0.1,2.1 -0.3,4.2 -0.5,6.2c-0.1,1 -0.2,2 -0.4,2.9c-0.2,0.9 -0.3,1.9 -0.5,2.8c-0.1,0.5 -0.2,0.9 -0.3,1.4c0,0.2 -0.1,0.4 -0.1,0.6c0,0.2 -0.1,0.5 -0.2,0.7c0,0.1 -0.1,0.3 -0.1,0.4c-0.9,3.8 -2.1,7.6 -3.7,11.4c0.8,0.3 1.7,0.6 2.6,0.8c0.2,-0.5 0.4,-1.1 0.7,-2c0.3,-0.9 0.6,-2 1.1,-3.3c0.2,-0.6 0.4,-1.3 0.6,-2.1c0.2,-0.7 0.4,-1.5 0.6,-2.3c0.2,-0.8 0.3,-1.6 0.5,-2.4c0,-0.1 0,-0.1 0,-0.2c0.1,-0.9 0.3,-1.8 0.5,-2.7c0.1,-0.9 0.3,-1.9 0.4,-2.9c0.1,-1 0.2,-2 0.3,-3c0.2,-2.1 0.2,-4.2 0.2,-6.3c0,-1.1 0,-2.2 -0.1,-3.2c0,-0.5 -0.1,-0.9 -0.1,-1.4c0,-0.5 -0.1,-0.8 -0.1,-0.8s0,0.1 0.1,0.4c0.5,3.6 4.5,31.8 11,47.8l5.8,3.5c-1.9,-4.6 -4.7,-11.8 -6.3,-16.5c-0.2,-0.7 -0.5,-1.4 -0.7,-2.1c-0.5,-1.4 -1.1,-3.3 -1.8,-5.5c-0.4,-1.3 -0.8,-2.7 -1.2,-4.2c-0.4,-1.5 -0.9,-3.1 -1.3,-4.7c-0.9,-3.3 -1.7,-6.8 -2.5,-10.3c-0.4,-1.8 -0.8,-3.6 -1.1,-5.3c0,-0.1 0,-0.2 -0.1,-0.3c-1.6,-7.4 -2.3,-12.1 -2.3,-12.1s0,0.1 0.1,0.3c0,-0.2 -0.1,-0.5 -0.1,-0.7c0.4,1.2 0.8,2.5 1.2,3.8c0.3,1 0.7,2.1 1.1,3.1c0.4,1 0.8,2.1 1.2,3.2c0.4,1.1 0.8,2.1 1.3,3.2c0.4,1.1 0.9,2.1 1.4,3.2c0.4,1.1 1,2.1 1.4,3.2c0.5,1 1,2.1 1.5,3.1c0.5,1 1.1,2 1.6,3c0.5,1 1,2 1.6,2.9c0.4,0.7 0.8,1.4 1.2,2.1c0.4,0.6 0.7,1.2 1.1,1.8c0.1,0.1 0.1,0.2 0.2,0.3c0.3,0.5 0.6,1 0.9,1.5c0.4,0.6 0.8,1.2 1.2,1.8c0.2,0.3 0.3,0.5 0.5,0.8c0.4,0.6 0.8,1.2 1.2,1.8c0,0 0,0 0,0c3.7,5.3 8,10.5 13,15.3c0,0 3.1,-4.3 1.7,-5.4c-22.5,-18.6 -33.5,-52.8 -34.6,-56.4z"/>
    <path fill="url(#svg_5)" d="m59.90001,-0.00001l-59.9,26.6l0,1.9c0,23.2 6,52 16,77c11.3,28.2 26.3,48.5 42.3,57.1l1.4,0.8l1.4,-0.8c16,-8.6 31,-28.9 42.3,-57.1c10,-25.1 16,-53.9 16,-77l0,-1.9l-59.5,-26.6zm-0.1,160c-33.5,-18 -56.8,-86.4 -56.8,-131.5l56.9,-25.3l56.6,25.3c0,45.1 -23.2,113.5 -56.7,131.5z"/>
    <path fill="url(#svg_4)" d="m82.90001,132.89999c-0.7,-1.5 -1.6,-3.3 -2.4,-5.3c-1,-2.3 -2,-5 -3,-7.9c-1,-2.9 -2,-6.2 -2.8,-9.6c-0.9,-3.4 -1.7,-7.1 -2.3,-10.9c-0.3,-1.9 -0.6,-3.8 -0.9,-5.8c-0.1,-1 -0.3,-2 -0.4,-3c-0.1,-1 -0.2,-2 -0.3,-3l-0.2,-1.5l-0.1,-1.5c-0.1,-1 -0.1,-2 -0.2,-3c-0.1,-2 -0.1,-4.1 -0.2,-6.1c0,-2 0,-4.1 0.1,-6.1c0,-1 0.1,-2 0.1,-3c0,-1 0.1,-2 0.2,-3c0.1,-1 0.2,-2 0.2,-3c0.1,-1 0.2,-2 0.3,-3c0.1,-0.6 0.1,-1.2 0.2,-1.8c0.2,-1.3 0.3,-2.7 0.5,-4c0.3,-1.9 0.6,-3.7 0.9,-5.6c0.3,-1.8 0.7,-3.6 1,-5.3c0.3,-1.7 0.7,-3.4 1.1,-5c0.4,-1.6 0.7,-3.1 1.1,-4.6c0.4,-1.5 0.8,-2.9 1.1,-4.2c0.3,-1.3 0.8,-2.6 1.1,-3.8c0.7,-2.4 1.3,-4.4 1.9,-6.1c0.1,-0.4 0.4,-1.2 0.4,-1.2l-5.8,-5.8c-4.5,15.4 -7.1,30.6 -8,43.4c-2.8,41.2 9.7,68.9 16,79.9"/>
    <path fill="url(#svg_3)" d="m82.70001,133.19999c-6.2,-11 -18.7,-38.7 -16,-79.9c0.9,-12.8 3.5,-28 8,-43.4l-6.6,0.3c0,0 -0.4,1.9 -0.7,3.2c-0.5,1.8 -0.9,4.1 -1.4,6.7c-0.2,1.3 -0.5,2.6 -0.8,4.1c0,0.1 0,0.2 -0.1,0.3c-0.2,1.3 -0.4,2.8 -0.7,4.2c-0.3,1.6 -0.5,3.3 -0.7,5c0,0.1 0,0.2 0,0.3c-0.2,1.6 -0.4,3.3 -0.6,5.1c-0.2,1.8 -0.3,3.7 -0.5,5.7c-0.1,1.9 -0.2,3.9 -0.3,5.9c0,0.3 0,0.5 0,0.8c-0.1,1.8 -0.1,3.5 -0.1,5.3c0,1 0,2.1 0,3.1c0,1 0,2.1 0.1,3.1c0,1.1 0.1,2.1 0.1,3.2c0.1,1.1 0.1,2.1 0.2,3.2c0.1,2.1 0.4,4.2 0.6,6.4c0.3,2.1 0.5,4.2 0.8,6.3c0.2,1 0.3,2.1 0.5,3.1l0.3,1.6l0.3,1.5c0.2,1 0.4,2.1 0.6,3.1c0.2,1 0.5,2 0.7,3c0.4,2 1,4 1.5,5.9c1.1,3.8 2.2,7.5 3.5,10.9c1.2,3.4 2.6,6.6 3.9,9.4c1.3,2.9 2.7,5.4 3.9,7.7c1.1,2.1 2.2,3.8 3.2,5.3"/>
    <path fill="url(#svg_2)" d="m3.00001,28.49999c0,45.1 23.2,113.5 56.8,131.5c33.5,-18 56.8,-86.4 56.8,-131.5l-56.6,-25.3l-57,25.3zm95,74.8c-10.4,26.1 -24,44.9 -38.2,53.3c-14.2,-8.4 -27.8,-27.2 -38.2,-53.3c-9.5,-23.7 -15.3,-50.8 -15.6,-72.9l53.9,-23.9l53.6,23.9c-0.3,22.1 -6,49.2 -15.5,72.9z"/>
   </g>
   <g>
    <g>
     <path fill="#3B3C43" d="m141.70001,110.49999c0,-0.5 0.1,-0.8 0.4,-1.1c0.3,-0.2 0.6,-0.3 0.9,-0.3l1.5,0c0.8,0 1.3,0.4 1.7,1.2c0.4,0.9 1.3,1.3 2.7,1.3l4.4,0.1c1.5,0 2.2,-0.5 2.2,-1.4c0,-0.4 -0.2,-0.8 -0.7,-1.1c-0.5,-0.3 -1.1,-0.6 -2,-0.8c-0.8,-0.2 -1.7,-0.4 -2.7,-0.6c-1,-0.2 -1.9,-0.5 -2.9,-0.7c-1,-0.2 -1.9,-0.5 -2.6,-0.9c-0.8,-0.4 -1.4,-0.9 -1.9,-1.5c-0.5,-0.7 -0.7,-1.4 -0.7,-2.3c0,-1.7 0.6,-3 1.8,-3.9s3.2,-1.4 6.2,-1.4l3.2,0.1c1.7,0 3.3,0.4 4.6,1.3c1.4,0.9 2.1,2 2.1,3.3c0,0.5 -0.1,0.8 -0.4,1.1c-0.3,0.2 -0.6,0.3 -0.8,0.3l-1.5,0c-0.8,0 -1.3,-0.4 -1.7,-1.2c-0.4,-0.9 -1.3,-1.3 -2.7,-1.3l-3.8,-0.1c-1.5,0 -2.2,0.5 -2.2,1.4c0,0.5 0.5,0.9 1.4,1.2s2.1,0.5 3.4,0.9c1.3,0.3 2.6,0.7 4,1c1.3,0.4 2.5,0.9 3.4,1.8c0.9,0.8 1.4,1.9 1.4,3.1c0,1.7 -0.6,3 -1.8,3.9c-1.2,0.9 -3.3,1.4 -6.2,1.4l-3.8,-0.1c-1.7,0 -3.3,-0.4 -4.6,-1.3c-1.6,-0.9 -2.3,-2 -2.3,-3.4z" class="st44"/>
     <path fill="#3B3C43" d="m162.70001,113.89999l0,-15.6c0,-0.3 0.1,-0.6 0.4,-0.9s0.5,-0.4 0.8,-0.4l2.4,0c0.3,0 0.6,0.1 0.8,0.4c0.2,0.2 0.3,0.5 0.3,0.9l0,6l2.7,0c0.7,0 1.4,-0.2 1.9,-0.6s1.1,-1 1.6,-1.9l1.9,-3.5c0.4,-0.8 1,-1.2 1.8,-1.2l2.9,0c0.3,0 0.5,0.1 0.6,0.3c0,0.1 0,0.1 0,0.2c0,0.2 -0.1,0.4 -0.2,0.7l-2.7,4.9c-0.4,0.7 -0.8,1.3 -1.3,1.8c-0.5,0.5 -1.1,0.8 -1.9,1c0.6,0.1 1.1,0.5 1.7,1c0.6,0.6 1.1,1.2 1.5,1.9l3.1,5c0.1,0.2 0.2,0.5 0.2,0.6c0,0.1 0,0.1 0,0.2c-0.1,0.2 -0.3,0.3 -0.6,0.3l-2.9,0c-0.3,0 -0.7,-0.1 -1.1,-0.3c-0.4,-0.2 -0.7,-0.5 -0.9,-0.8l-2.2,-3.5c-0.5,-0.9 -1.1,-1.5 -1.6,-1.9c-0.5,-0.4 -1.2,-0.6 -1.9,-0.6l-2.7,0l0,6.1c0,0.3 -0.1,0.6 -0.3,0.8s-0.5,0.3 -0.8,0.3l-2.4,0c-0.3,0 -0.6,-0.1 -0.8,-0.4c-0.2,-0.2 -0.3,-0.4 -0.3,-0.8z" class="st44"/>
     <path fill="#3B3C43" d="m181.60001,97.59999c0.1,-0.2 0.3,-0.4 0.6,-0.4l2.4,0c0.9,0 1.7,0.4 2.2,1.2l4.1,6.3l4,-6.3c0.5,-0.8 1.2,-1.2 2.2,-1.2l2.4,0c0.3,0 0.5,0.1 0.6,0.4c0,0.1 0,0.2 0,0.2c0,0.2 -0.1,0.4 -0.2,0.6l-6.7,10.4l0,5.3c0,0.3 -0.1,0.6 -0.3,0.8s-0.5,0.3 -0.8,0.3l-2.5,0c-0.3,0 -0.6,-0.1 -0.8,-0.3c-0.2,-0.2 -0.4,-0.5 -0.4,-0.8l0,-5.3l-6.7,-10.4c-0.1,-0.2 -0.2,-0.4 -0.2,-0.6c0,-0.1 0.1,-0.2 0.1,-0.2z" class="st44"/>
     <path fill="#3B3C43" d="m202.10001,113.99999l0,-15.6c0,-0.3 0.1,-0.6 0.4,-0.9c0.2,-0.2 0.5,-0.4 0.8,-0.4l2.4,0c0.3,0 0.6,0.1 0.8,0.4c0.2,0.2 0.3,0.5 0.3,0.9l0,13.2l10.9,0c0.3,0 0.6,0.1 0.8,0.4c0.2,0.2 0.3,0.5 0.3,0.8l0,1.2c0,0.3 -0.1,0.6 -0.3,0.8c-0.2,0.2 -0.5,0.3 -0.8,0.3l-14.4,0c-0.3,0 -0.6,-0.1 -0.8,-0.3s-0.4,-0.5 -0.4,-0.8z" class="st44"/>
     <path fill="#3B3C43" d="m221.00001,113.99999l0,-15.6c0,-0.3 0.1,-0.6 0.4,-0.8c0.2,-0.2 0.5,-0.4 0.8,-0.4l2.3,0c0.3,0 0.6,0.1 0.9,0.4c0.2,0.2 0.3,0.5 0.3,0.8l0,15.6c0,0.3 -0.1,0.6 -0.4,0.8c-0.2,0.2 -0.5,0.3 -0.8,0.3l-2.3,0c-0.3,0 -0.6,-0.1 -0.8,-0.3s-0.4,-0.5 -0.4,-0.8z" class="st44"/>
     <path fill="#3B3C43" d="m229.30001,113.99999l0,-15.6c0,-0.3 0.1,-0.6 0.3,-0.8c0.2,-0.2 0.5,-0.4 0.8,-0.4l3.7,0c0.3,0 0.6,0.1 0.9,0.4c0.3,0.2 0.6,0.5 0.8,0.8l7.6,11.6l0,-11.7c0,-0.3 0.1,-0.6 0.3,-0.8s0.5,-0.3 0.8,-0.3l2.1,0c0.3,0 0.6,0.1 0.8,0.3c0.2,0.2 0.3,0.5 0.3,0.9l0,15.6c0,0.3 -0.1,0.6 -0.3,0.8c-0.2,0.2 -0.5,0.3 -0.8,0.3l-4,0c-0.3,0 -0.7,-0.1 -1,-0.3c-0.3,-0.2 -0.6,-0.5 -0.8,-0.8l-6.8,-10.8l0,10.8c0,0.3 -0.1,0.6 -0.4,0.8c-0.2,0.2 -0.5,0.3 -0.9,0.3l-2.3,0c-0.3,0 -0.6,-0.1 -0.9,-0.3c-0.1,-0.2 -0.2,-0.5 -0.2,-0.8z" class="st44"/>
     <path fill="#3B3C43" d="m251.50001,113.89999l0,-15.6c0,-0.3 0.1,-0.6 0.4,-0.8s0.5,-0.3 0.8,-0.3l14.4,0c0.3,0 0.6,0.1 0.8,0.4c0.2,0.2 0.3,0.5 0.3,0.8l0,1.2c0,0.3 -0.1,0.6 -0.3,0.8s-0.5,0.3 -0.8,0.3l-10.9,0l0,3.6l9.4,0c0.3,0 0.6,0.1 0.8,0.3c0.2,0.2 0.3,0.5 0.3,0.8l0,1.2c0,0.3 -0.1,0.6 -0.3,0.8c-0.2,0.2 -0.5,0.3 -0.8,0.3l-9.4,0l0,3.7l10.9,0c0.3,0 0.6,0.1 0.8,0.3c0.2,0.2 0.3,0.5 0.3,0.8l0,1.2c0,0.3 -0.1,0.6 -0.4,0.8c-0.2,0.2 -0.5,0.3 -0.8,0.3l-14.4,0c-0.3,0 -0.6,-0.1 -0.8,-0.3c-0.2,0.1 -0.3,-0.2 -0.3,-0.6z" class="st44"/>
     <path fill="#3B3C43" d="m278.10001,113.99999l3.1,-11.9c0.9,-3.2 3.6,-4.9 8.3,-4.9l6.8,0c0.3,0 0.6,0.1 0.8,0.4c0.2,0.2 0.3,0.5 0.3,0.8l0,15.7c0,0.3 -0.1,0.6 -0.4,0.8c-0.2,0.2 -0.5,0.3 -0.8,0.3l-2.4,0c-0.3,0 -0.6,-0.1 -0.8,-0.3s-0.3,-0.5 -0.3,-0.8l0,-3.2l-8.9,0l-0.8,3.2c-0.1,0.3 -0.3,0.6 -0.6,0.8s-0.6,0.3 -0.9,0.3l-2.5,0c-0.3,0 -0.6,-0.1 -0.7,-0.3c-0.1,-0.2 -0.2,-0.3 -0.2,-0.5c0,-0.2 0,-0.3 0,-0.4zm6.7,-6.7l7.9,0l0,-6.5l-3.6,0c-0.8,0 -1.5,0.2 -2.1,0.7c-0.6,0.5 -1,1.1 -1.2,1.8l-1,4z" class="st44"/>
     <path fill="#3B3C43" d="m300.80001,107.99999l0,-9.7c0,-0.3 0.1,-0.6 0.3,-0.8c0.2,-0.2 0.5,-0.4 0.9,-0.4l2.3,0c0.3,0 0.6,0.1 0.8,0.4c0.2,0.2 0.3,0.5 0.3,0.8l0,9.7c0,1.2 0.3,2.1 0.8,2.7c0.5,0.6 1.4,0.9 2.5,0.9l2,0c1.1,0 2,-0.3 2.5,-0.9c0.5,-0.6 0.8,-1.5 0.8,-2.7l0,-9.7c0,-0.3 0.1,-0.6 0.3,-0.8c0.2,-0.2 0.5,-0.4 0.8,-0.4l2.3,0c0.3,0 0.6,0.1 0.9,0.4c0.2,0.2 0.4,0.5 0.4,0.8l0,9.7c0,2.3 -0.7,4.1 -2,5.3c-1.3,1.3 -3.3,1.9 -5.9,1.9l-2.3,0c-2.6,0 -4.5,-0.6 -5.9,-1.9c-1.2,-1.2 -1.8,-3 -1.8,-5.3z" class="st44"/>
     <path fill="#3B3C43" d="m320.60001,99.49999l0,-1.2c0,-0.3 0.1,-0.6 0.3,-0.9s0.5,-0.3 0.9,-0.3l15.9,0c0.3,0 0.6,0.1 0.9,0.3s0.3,0.5 0.3,0.9l0,1.2c0,0.3 -0.1,0.6 -0.3,0.8c-0.2,0.2 -0.5,0.3 -0.9,0.3l-5.6,0l0,13.3c0,0.3 -0.1,0.6 -0.3,0.8c-0.2,0.2 -0.5,0.3 -0.8,0.3l-2.4,0c-0.3,0 -0.6,-0.1 -0.8,-0.3s-0.3,-0.5 -0.3,-0.8l0,-13.3l-5.6,0c-0.3,0 -0.6,-0.1 -0.9,-0.3c-0.3,-0.1 -0.4,-0.4 -0.4,-0.8z" class="st44"/>
     <path fill="#3B3C43" d="m341.70001,113.29999c-1.7,-1.5 -2.6,-3.9 -2.6,-7.1s0.9,-5.6 2.6,-7.1c1.7,-1.5 4.2,-2.2 7.5,-2.2s5.8,0.7 7.5,2.2c1.7,1.5 2.6,3.9 2.6,7.1s-0.9,5.6 -2.6,7.1c-1.7,1.5 -4.2,2.2 -7.5,2.2s-5.8,-0.7 -7.5,-2.2zm3.4,-11.6c-0.8,1 -1.3,2.5 -1.3,4.5s0.4,3.5 1.3,4.5c0.8,1 2.2,1.5 4.1,1.5s3.2,-0.5 4.1,-1.5c0.8,-1 1.3,-2.5 1.3,-4.5s-0.4,-3.5 -1.3,-4.5c-0.8,-1 -2.2,-1.5 -4.1,-1.5s-3.2,0.5 -4.1,1.5z" class="st44"/>
     <path fill="#3B3C43" d="m361.90001,113.89999l0,-15.5c0,-0.3 0.1,-0.6 0.3,-0.9c0.2,-0.2 0.5,-0.4 0.8,-0.4l5.1,0c0.3,0 0.6,0.1 0.9,0.4c0.3,0.2 0.5,0.5 0.6,0.8l3.7,10.7l3.7,-10.7c0.1,-0.3 0.3,-0.6 0.6,-0.8c0.3,-0.2 0.6,-0.4 0.9,-0.4l5.1,0c0.3,0 0.6,0.1 0.8,0.4c0.2,0.2 0.3,0.5 0.3,0.9l0,15.5c0,0.3 -0.1,0.6 -0.4,0.9c-0.2,0.2 -0.5,0.3 -0.9,0.3l-2.3,0c-0.3,0 -0.6,-0.1 -0.9,-0.3c-0.2,-0.2 -0.4,-0.5 -0.4,-0.9l0,-12.2l-4.4,12.3c-0.1,0.3 -0.3,0.6 -0.6,0.8s-0.6,0.3 -0.9,0.3l-1.8,0c-0.3,0 -0.6,-0.1 -0.9,-0.3s-0.5,-0.5 -0.6,-0.8l-4.4,-12.3l0,12.2c0,0.3 -0.1,0.6 -0.4,0.9c-0.2,0.2 -0.5,0.3 -0.9,0.3l-2.3,0c-0.3,0 -0.6,-0.1 -0.9,-0.3c0.3,-0.2 0.2,-0.5 0.2,-0.9z" class="st44"/>
     <path fill="#3B3C43" d="m389.90001,113.29999c-1.7,-1.5 -2.6,-3.9 -2.6,-7.1s0.9,-5.6 2.6,-7.1c1.7,-1.5 4.2,-2.2 7.5,-2.2s5.8,0.7 7.5,2.2c1.7,1.5 2.6,3.9 2.6,7.1s-0.9,5.6 -2.6,7.1c-1.7,1.5 -4.2,2.2 -7.5,2.2s-5.8,-0.7 -7.5,-2.2zm3.5,-11.6c-0.8,1 -1.3,2.5 -1.3,4.5s0.4,3.5 1.3,4.5c0.8,1 2.2,1.5 4.1,1.5s3.2,-0.5 4.1,-1.5c0.8,-1 1.3,-2.5 1.3,-4.5s-0.4,-3.5 -1.3,-4.5c-0.8,-1 -2.2,-1.5 -4.1,-1.5s-3.3,0.5 -4.1,1.5z" class="st44"/>
     <path fill="#3B3C43" d="m407.80001,99.49999l0,-1.2c0,-0.3 0.1,-0.6 0.3,-0.9s0.5,-0.3 0.9,-0.3l15.9,0c0.3,0 0.6,0.1 0.9,0.3s0.3,0.5 0.3,0.9l0,1.2c0,0.3 -0.1,0.6 -0.3,0.8c-0.2,0.2 -0.5,0.3 -0.9,0.3l-5.6,0l0,13.3c0,0.3 -0.1,0.6 -0.3,0.8c-0.2,0.2 -0.5,0.3 -0.8,0.3l-2.4,0c-0.3,0 -0.6,-0.1 -0.8,-0.3s-0.3,-0.5 -0.3,-0.8l0,-13.3l-5.6,0c-0.3,0 -0.6,-0.1 -0.9,-0.3c-0.3,-0.1 -0.4,-0.4 -0.4,-0.8z" class="st44"/>
     <path fill="#3B3C43" d="m428.10001,113.99999l0,-15.6c0,-0.3 0.1,-0.6 0.4,-0.8c0.2,-0.2 0.5,-0.4 0.8,-0.4l2.3,0c0.3,0 0.6,0.1 0.9,0.4c0.2,0.2 0.3,0.5 0.3,0.8l0,15.6c0,0.3 -0.1,0.6 -0.4,0.8c-0.2,0.2 -0.5,0.3 -0.8,0.3l-2.3,0c-0.3,0 -0.6,-0.1 -0.8,-0.3s-0.4,-0.5 -0.4,-0.8z" class="st44"/>
     <path fill="#3B3C43" d="m435.00001,98.19999c0,-0.1 -0.1,-0.2 -0.1,-0.3c0,-0.2 0.1,-0.3 0.2,-0.4c0.2,-0.2 0.4,-0.3 0.7,-0.3l2.7,0c0.7,0 1.1,0.4 1.5,1.2l4.8,10.8l4.8,-10.8c0.3,-0.8 0.8,-1.2 1.5,-1.2l2.7,0c0.3,0 0.5,0.1 0.7,0.3c0.1,0.1 0.2,0.3 0.2,0.4c0,0.1 0,0.2 -0.1,0.3l-7,15.7c-0.4,0.9 -1,1.3 -1.8,1.3l-1.8,0c-0.8,0 -1.4,-0.4 -1.8,-1.3l-7.2,-15.7z" class="st44"/>
     <path fill="#3B3C43" d="m456.90001,113.89999l0,-15.6c0,-0.3 0.1,-0.6 0.4,-0.8s0.5,-0.3 0.8,-0.3l14.4,0c0.3,0 0.6,0.1 0.8,0.4c0.2,0.2 0.3,0.5 0.3,0.8l0,1.2c0,0.3 -0.1,0.6 -0.3,0.8s-0.5,0.3 -0.8,0.3l-10.9,0l0,3.6l9.4,0c0.3,0 0.6,0.1 0.8,0.3c0.2,0.2 0.3,0.5 0.3,0.8l0,1.2c0,0.3 -0.1,0.6 -0.3,0.8c-0.2,0.2 -0.5,0.3 -0.8,0.3l-9.4,0l0,3.7l10.9,0c0.3,0 0.6,0.1 0.8,0.3c0.2,0.2 0.3,0.5 0.3,0.8l0,1.2c0,0.3 -0.1,0.6 -0.4,0.8c-0.2,0.2 -0.5,0.3 -0.8,0.3l-14.4,0c-0.3,0 -0.6,-0.1 -0.8,-0.3c-0.2,0.1 -0.3,-0.2 -0.3,-0.6z" class="st44"/>
    </g>
    <g>
     <path fill="#3B3C43" d="m384.30001,63.89999l-2.3,0c-0.3,0 -0.6,0.1 -0.8,0.4c-0.2,0.2 -0.3,0.5 -0.3,0.8l0,7.6c0,1.2 -0.3,2.1 -0.8,2.7c-0.5,0.6 -1.4,0.9 -2.5,0.9l-1.3,0c-1.1,0 -2,-0.3 -2.5,-0.9c-0.5,-0.6 -0.8,-1.5 -0.8,-2.7l0,-17.7c0,-0.3 -0.1,-0.6 -0.3,-0.8c-0.2,-0.2 -0.5,-0.4 -0.8,-0.4l-2.3,0c-0.3,0 -0.6,0.1 -0.9,0.4c-0.2,0.2 -0.3,0.5 -0.3,0.8l0,17.7c0,1.2 -0.3,2.1 -0.8,2.7c-0.5,0.6 -1.4,0.9 -2.5,0.9l-2,0l0,-15.2c0,-0.3 -0.1,-0.6 -0.3,-0.8c-0.2,-0.2 -0.5,-0.4 -0.9,-0.4l-2.3,0c-0.3,0 -0.6,0.1 -0.8,0.4c-0.2,0.2 -0.4,0.5 -0.4,0.8l0,15.2l-6.1,0c-0.3,0 -0.6,0.1 -0.8,0.3c-0.2,0.2 -0.3,0.5 -0.3,0.8l0,1.2c0,0.3 0.1,0.6 0.3,0.8c0.2,0.2 0.5,0.3 0.8,0.3l12.9,0c2.4,0 4.2,-0.5 5.5,-1.6c1.1,0.9 2.5,1.4 4.3,1.5c0.1,0 3.8,0 4,0c2,-0.2 3.5,-0.8 4.7,-1.8c1.3,-1.3 2,-3 2,-5.3l0,-7.6c0,-0.3 -0.1,-0.6 -0.3,-0.8c-0.5,-0.1 -0.8,-0.2 -1.1,-0.2z" class="st44"/>
     <path fill="#3B3C43" d="m304.00001,53.79999l-2.3,0c-0.3,0 -0.6,0.1 -0.8,0.4c-0.2,0.2 -0.3,0.5 -0.3,0.8l0,17.7c0,1.2 -0.3,2.1 -0.8,2.7c-0.5,0.6 -1.4,0.9 -2.5,0.9l-1.3,0c-1.1,0 -2,-0.3 -2.5,-0.9c-0.5,-0.6 -0.8,-1.5 -0.8,-2.7l0,-17.7c0,-0.3 -0.1,-0.6 -0.3,-0.8c-0.2,-0.2 -0.5,-0.4 -0.8,-0.4l-2.3,0c-0.3,0 -0.6,0.1 -0.9,0.4c-0.2,0.2 -0.3,0.5 -0.3,0.8l0,15l0,2.7c0,1.2 -0.3,2.1 -0.8,2.7c-0.5,0.6 -1.4,0.9 -2.5,0.9l-22.1,0c-1.1,0 -2,-0.3 -2.5,-0.9c-0.5,-0.6 -0.8,-1.5 -0.8,-2.7l0,-7.6c0,-0.3 -0.1,-0.6 -0.3,-0.8c-0.2,-0.2 -0.5,-0.4 -0.8,-0.4l-2.3,0c-0.3,0 -0.6,0.1 -0.9,0.4c-0.2,0.2 -0.3,0.5 -0.3,0.8l0,4.9l0,0l0,2.7c0,1.2 -0.3,2.1 -0.8,2.7c-0.5,0.6 -1.4,0.9 -2.5,0.9l-1.7,0c-1.1,0 -2,-0.3 -2.5,-0.9c-0.5,-0.6 -0.8,-1.5 -0.8,-2.7l0,-5.6c0,-0.3 -0.1,-0.6 -0.3,-0.8c-0.2,-0.2 -0.5,-0.4 -0.8,-0.4l-2.3,0c-0.3,0 -0.6,0.1 -0.9,0.4c-0.2,0.2 -0.3,0.5 -0.3,0.8l0,2.9l0,0l0,2.7c0,1.2 -0.3,2.1 -0.8,2.7c-0.5,0.6 -1.4,0.9 -2.5,0.9l-1.7,0c-1.1,0 -2,-0.3 -2.5,-0.9c-0.5,-0.6 -0.8,-1.5 -0.8,-2.7l0,-5.6c0,-0.3 -0.1,-0.6 -0.3,-0.8c-0.2,-0.2 -0.5,-0.4 -0.8,-0.4l-2.3,0c-0.3,0 -0.6,0.1 -0.9,0.4c-0.2,0.2 -0.3,0.5 -0.3,0.8l0,2.9l0,0l0,2.7c0,1.2 -0.3,2.1 -0.8,2.7c-0.5,0.6 -1.4,0.9 -2.5,0.9l-8.1,0c-1.1,0 -2,-0.3 -2.5,-0.9c-0.5,-0.6 -0.8,-1.5 -0.8,-2.7l0,-7.6c0,-0.3 -0.1,-0.6 -0.3,-0.8c-0.2,-0.2 -0.5,-0.4 -0.8,-0.4l-2.3,0c-0.3,0 -0.6,0.1 -0.9,0.4c-0.2,0.2 -0.3,0.5 -0.3,0.8l0,7.6c0,1.2 -0.3,2.1 -0.8,2.7c-0.5,0.6 -1.4,0.9 -2.5,0.9l-2.6,0c-1.1,0 -2,-0.3 -2.5,-0.9c-0.5,-0.6 -0.8,-1.5 -0.8,-2.7l0,-17.7c0,-0.3 -0.1,-0.6 -0.3,-0.8c-0.2,-0.2 -0.5,-0.4 -0.8,-0.4l-2.3,0c-0.3,0 -0.6,0.1 -0.9,0.4c-0.2,0.2 -0.3,0.5 -0.3,0.8l0,17.7c0,2.3 0.7,4.1 2,5.3c1.3,1.3 3.3,1.9 5.9,1.9l2.8,0c2.4,0 4.2,-0.5 5.5,-1.6c1.3,1 3.1,1.6 5.4,1.6c0,0 8.6,0 8.6,0c2.3,0 4.1,-0.6 5.4,-1.6c1.2,1 2.9,1.5 5,1.6c0.1,0 2.9,0 3,0c2.1,-0.1 3.8,-0.6 5,-1.6c1.2,1 2.9,1.5 5,1.6c0.1,0 2.9,0 3,0c2.1,-0.1 3.8,-0.6 5,-1.6c1.3,1.1 3.2,1.6 5.5,1.6l22.3,0c2.4,0 4.2,-0.5 5.5,-1.6c1.1,0.9 2.5,1.4 4.3,1.5c0.1,0 3.8,0 4,0c2,-0.2 3.5,-0.8 4.7,-1.8c1.3,-1.3 2,-3 2,-5.3l0,-17.7c0,-0.3 -0.1,-0.6 -0.3,-0.8c-0.8,-0.3 -1.1,-0.4 -1.5,-0.4z" class="st44"/>
     <path fill="#3B3C43" d="m473.40001,64.29999c-0.2,-0.2 -0.5,-0.4 -0.9,-0.4l-2.3,0c-0.3,0 -0.6,0.1 -0.8,0.4c-0.2,0.2 -0.3,0.5 -0.3,0.8l0,7.6c0,1.2 -0.3,2.1 -0.8,2.7c-0.5,0.6 -1.4,0.9 -2.5,0.9l-1.7,0c-1.1,0 -2,-0.3 -2.5,-0.9c-0.5,-0.6 -0.8,-1.5 -0.8,-2.7l0,-5.6c0,-0.3 -0.1,-0.6 -0.3,-0.8c-0.2,-0.2 -0.5,-0.4 -0.8,-0.4l-2.3,0c-0.3,0 -0.6,0.1 -0.9,0.4c-0.2,0.2 -0.3,0.5 -0.3,0.8l0,5.6c0,1.2 -0.3,2.1 -0.8,2.7c-0.5,0.6 -1.4,0.9 -2.5,0.9l-1.7,0c-1.1,0 -2,-0.3 -2.5,-0.9c-0.5,-0.6 -0.8,-1.5 -0.8,-2.7l0,-7.6c0,-0.3 -0.1,-0.6 -0.3,-0.8c-0.2,-0.2 -0.5,-0.4 -0.8,-0.4l-2.3,0c-0.3,0 -0.6,0.1 -0.9,0.4c-0.2,0.2 -0.3,0.5 -0.3,0.8l0,7.6c0,1.2 -0.3,2.1 -0.8,2.7c-0.5,0.6 -1.4,0.9 -2.5,0.9l-18.5,0c-1.1,0 -2,-0.3 -2.5,-0.9c-0.5,-0.6 -0.8,-1.5 -0.8,-2.7l0,-1.7l0,0c0,0 0,0 0,0c0,-6.7 -4.3,-7.5 -10,-7.6l3.7,-4.2c0.3,-0.3 0.4,-0.6 0.5,-1.1c0.1,-0.4 0.1,-0.8 0,-1.1l-0.8,-2.8c-0.1,-0.3 -0.3,-0.5 -0.5,-0.5c-0.1,0 -0.1,0 -0.2,0c-0.1,0 -0.3,0.1 -0.4,0.3c0,0 0,0 0,0l0,0.1c0,0 0,0 0,0l-7.8,9c-0.3,0.3 -0.7,0.6 -0.7,1l0,2.4c0,0.5 0.4,1 1,1l6.2,0c2.8,0 4.3,1.2 4.3,3.6l0,1.5c0,1.2 -0.3,2.1 -0.8,2.7c-0.5,0.6 -1.4,0.9 -2.5,0.9l-11.8,0c-1.1,0 -2,-0.3 -2.5,-0.9c-0.5,-0.6 -0.8,-1.5 -0.8,-2.7l0,-17.7c0,-0.3 -0.1,-0.6 -0.3,-0.8c-0.2,-0.2 -0.5,-0.4 -0.8,-0.4l-2.3,0c-0.3,0 -0.6,0.1 -0.9,0.4c-0.2,0.2 -0.3,0.5 -0.3,0.8l0,17.7c0,2.3 0.7,4.1 2,5.3c1.3,1.3 3.3,1.9 5.9,1.9l12.1,0c2.4,0 4.2,-0.5 5.5,-1.6c1.3,1.1 3.2,1.6 5.5,1.6l18.8,0c2.4,0 4.2,-0.5 5.5,-1.6c1.2,1 2.9,1.5 5,1.6c0.1,0 2.9,0 3,0c2.1,-0.1 3.8,-0.6 5,-1.6c1.2,1 2.9,1.5 5,1.6c0.1,0 2.9,0 3,0c2.3,-0.1 4.1,-0.7 5.4,-1.9c1.3,-1.3 2,-3 2,-5.3l0,-7.6c-0.5,-0.2 -0.6,-0.5 -0.8,-0.7z" class="st44"/>
     <path fill="#3B3C43" d="m181.60001,54.99999c0,-0.3 -0.1,-0.6 -0.3,-0.8c-0.2,-0.2 -0.5,-0.4 -0.9,-0.4l-2.3,0c-0.3,0 -0.6,0.1 -0.8,0.4c-0.2,0.2 -0.4,0.5 -0.4,0.8l0,23.7c0,0.3 0.1,0.6 0.4,0.8s0.5,0.3 0.8,0.3l2.3,0c0.3,0 0.6,-0.1 0.8,-0.3c0.2,-0.2 0.4,-0.5 0.4,-0.8l0,-23.7z" class="st44"/>
     <path fill="#3B3C43" d="m190.30001,65.89999l-2.3,0c-0.3,0 -0.6,0.1 -0.8,0.4c-0.2,0.2 -0.3,0.5 -0.3,0.8l0,12.7c0,1.2 -0.3,2.1 -0.8,2.7c-0.5,0.6 -1.4,0.9 -2.5,0.9l-1,0c-0.5,0 -0.9,0.4 -0.9,0.9l0,1.8c0,0.5 0.4,0.9 0.9,0.9l1.2,0c2.6,0 4.5,-0.6 5.9,-1.9c1.3,-1.3 2,-3 2,-5.3l0,-12.7c0,-0.3 -0.1,-0.6 -0.3,-0.8c-0.5,-0.3 -0.8,-0.4 -1.1,-0.4z" class="st44"/>
     <path fill="#3B3C43" d="m384.30001,83.89999l-1.2,0c-0.7,0 -1.2,0.5 -1.2,1.2l0,1.2c0,0.7 0.5,1.2 1.2,1.2l1.2,0c0.7,0 1.2,-0.5 1.2,-1.2l0,-1.2c0,-0.7 -0.6,-1.2 -1.2,-1.2z" class="st44"/>
     <path fill="#3B3C43" d="m378.80001,83.89999l-1.2,0c-0.7,0 -1.2,0.5 -1.2,1.2l0,1.2c0,0.7 0.5,1.2 1.2,1.2l1.2,0c0.7,0 1.2,-0.5 1.2,-1.2l0,-1.2c0,-0.7 -0.5,-1.2 -1.2,-1.2z" class="st44"/>
     <path fill="#3B3C43" d="m207.10001,83.89999l-1.2,0c-0.7,0 -1.2,0.5 -1.2,1.2l0,1.2c0,0.7 0.5,1.2 1.2,1.2l1.2,0c0.7,0 1.2,-0.5 1.2,-1.2l0,-1.2c0,-0.7 -0.6,-1.2 -1.2,-1.2z" class="st44"/>
     <path fill="#3B3C43" d="m201.60001,83.89999l-1.2,0c-0.7,0 -1.2,0.5 -1.2,1.2l0,1.2c0,0.7 0.5,1.2 1.2,1.2l1.2,0c0.7,0 1.2,-0.5 1.2,-1.2l0,-1.2c0,-0.7 -0.5,-1.2 -1.2,-1.2z" class="st44"/>
     <path fill="#3B3C43" d="m159.60001,67.39999l1.2,0c0.7,0 1.2,-0.5 1.2,-1.2l0,-1.2c0,-0.7 -0.5,-1.2 -1.2,-1.2l-1.2,0c-0.7,0 -1.2,0.5 -1.2,1.2l0,1.2c0,0.7 0.5,1.2 1.2,1.2z" class="st44"/>
     <path fill="#3B3C43" d="m154.10001,67.39999l1.2,0c0.7,0 1.2,-0.5 1.2,-1.2l0,-1.2c0,-0.7 -0.5,-1.2 -1.2,-1.2l-1.2,0c-0.7,0 -1.2,0.5 -1.2,1.2l0,1.2c0,0.7 0.6,1.2 1.2,1.2z" class="st44"/>
     <path fill="#3B3C43" d="m172.00001,64.29999c-0.2,-0.2 -0.5,-0.4 -0.9,-0.4l-2.3,0c-0.3,0 -0.6,0.1 -0.8,0.4c-0.2,0.2 -0.3,0.5 -0.3,0.8l0,7.6c0,1.2 -0.3,2.1 -0.8,2.7c-0.5,0.6 -1.4,0.9 -2.5,0.9l-7.2,0l-4.8,0l-0.1,0c-0.8,0 -1.5,-0.2 -2.1,-0.7c-0.6,-0.5 -1,-1.1 -1.2,-1.8l-2.4,-8.7c-0.1,-0.3 -0.3,-0.6 -0.6,-0.8s-0.6,-0.3 -0.9,-0.3l-2.5,0c-0.3,0 -0.6,0.1 -0.7,0.3c-0.1,0.2 -0.2,0.3 -0.2,0.5c0,0.1 0,0.2 0.1,0.3l2.6,9.9c0.8,3.1 3.4,4.7 7.7,4.9l0,0c0,0 0,0 0,0c0,0 0.2,0 0.6,0c0,0 0,0 0,0l8.8,0c0,0 0,0 0,0c1.7,0 3,0 3,0c2.5,0 4.5,-0.6 5.8,-1.9c1.3,-1.3 2,-3 2,-5.3l0,-7.6c0.1,-0.3 -0.1,-0.6 -0.3,-0.8z" class="st44"/>
    </g>
    <path fill="#3B3C43" d="m346.70001,83.89999l-1.1,0c-0.7,0 -1.2,0.5 -1.2,1.2l0,1.2c0,0.7 0.5,1.2 1.2,1.2l1.2,0c0.7,0 1.2,-0.5 1.2,-1.2l0,-1.2c-0.1,-0.7 -0.6,-1.2 -1.3,-1.2z" class="st44"/>
    <path fill="#3B3C43" d="m323.60001,67.39999l1.2,0c0.7,0 1.2,-0.5 1.2,-1.2l0,-1.2c0,-0.7 -0.5,-1.2 -1.2,-1.2l-1.2,0c-0.7,0 -1.2,0.5 -1.2,1.2l0,1.2c0,0.7 0.5,1.2 1.2,1.2z" class="st44"/>
    <path fill="#3B3C43" d="m341.30001,83.89999l-1.2,0c-0.7,0 -1.2,0.5 -1.2,1.2l0,1.2c0,0.7 0.5,1.2 1.2,1.2l1.2,0c0.7,0 1.2,-0.5 1.2,-1.2l0,-1.2c0,-0.7 -0.6,-1.2 -1.2,-1.2z" class="st44"/>
    <path fill="#3B3C43" d="m347.60001,64.29999c-0.2,-0.2 -0.5,-0.4 -0.9,-0.4l-2.3,0c-0.3,0 -0.6,0.1 -0.8,0.4c-0.2,0.2 -0.3,0.5 -0.3,0.8l0,7.6c0,1.2 -0.3,2.1 -0.8,2.7c-0.5,0.6 -1.4,0.9 -2.5,0.9l-1.6,0c-1.1,0 -2,-0.3 -2.5,-0.9c-0.5,-0.6 -0.8,-1.5 -0.8,-2.7l0,-7.6c0,-0.3 -0.1,-0.6 -0.3,-0.8c-0.2,-0.2 -0.5,-0.4 -0.8,-0.4l-2.3,0c-0.3,0 -0.6,0.1 -0.9,0.4c-0.2,0.2 -0.3,0.5 -0.3,0.8l0,14.5c0,0.4 -0.3,0.7 -0.7,0.7l-4.9,0l0,0l-3.6,0c-1.1,0 -2,-0.3 -2.5,-0.9c-0.5,-0.6 -0.8,-1.5 -0.8,-2.7l0,-11.6c0,-0.3 -0.1,-0.6 -0.3,-0.8c-0.2,-0.2 -0.5,-0.4 -0.8,-0.4l-2.3,0c-0.3,0 -0.6,0.1 -0.9,0.4c-0.2,0.2 -0.3,0.5 -0.3,0.8l0,11.6c0,2.3 0.7,4.1 2,5.3c1.3,1.2 3.3,1.9 5.8,1.9c0,0 0,0 0,0c0,0 1.9,0 4.2,0l0,0l8.8,0c0.3,0 0.6,-0.1 0.8,-0.4c0.2,-0.2 0.3,-0.5 0.3,-0.8l0,-3.2c0.8,0.2 1.6,0.4 2.6,0.4c0.1,0 3,0 3.1,0c2.3,-0.1 4.1,-0.7 5.3,-1.9c1.3,-1.3 2,-3 2,-5.3l0,-7.6c-0.4,-0.3 -0.5,-0.6 -0.7,-0.8z" class="st44"/>
   </g>
  </g>
 </g>
</svg>