<svg xmlns="http://www.w3.org/2000/svg" width="377" height="149" viewBox="0 0 377 149" fill="none"><path d="M38.0048 2.3053V23.7565H11.3166V2.3053H1.0166V54.4039H11.3166V32.416H38.0048V54.4039H48.2978V2.3053H38.0048Z" fill="white"/><path d="M83.9563 14.9469L73.8995 38.5456L63.0479 14.9469H52.2793L68.5983 49.3467L60.0394 67.6596H70.888L94.8049 14.9469H83.9563Z" fill="white"/><path d="M136.287 54.4039H126.229V48.8827C124.008 52.4056 119.657 55.3193 113.322 55.3193C102.71 55.3193 97.7969 48.2725 97.7969 38.1571V14.9479H107.857V37.0878C107.857 43.3713 110.948 46.6656 116.883 46.6656C119.011 46.6844 121.085 46.017 122.778 44.7687C124.47 43.5203 125.684 41.7622 126.229 39.7718V14.9479H136.287V54.4039Z" fill="white"/><path d="M144.102 14.9459H154.159V20.467C156.38 16.9422 160.733 14.0305 167.068 14.0305C177.681 14.0305 182.586 21.0773 182.586 31.1927V54.4039H172.532V32.262C172.532 25.9785 169.442 22.6823 163.506 22.6823C161.378 22.6634 159.303 23.3311 157.61 24.5797C155.918 25.8284 154.703 27.5871 154.158 29.578V54.4039H144.102V14.9459Z" fill="white"/><path d="M220.173 49.8843C218.576 51.6238 216.61 53.01 214.409 53.9485C212.209 54.887 209.825 55.3559 207.42 55.3231C196.099 55.3231 187.784 47.2012 187.784 34.7156C187.784 22.23 196.1 14.0286 207.42 14.0286C209.83 14.0093 212.217 14.4918 214.417 15.4434C216.617 16.3951 218.58 17.7936 220.173 19.544V0H230.231V54.4058H220.173V49.8843ZM220.173 40.7656V28.6626C219.18 26.805 217.664 25.2575 215.8 24.1994C213.935 23.1413 211.799 22.616 209.639 22.6843C203.067 22.6843 197.997 27.0499 197.997 34.7156C197.997 42.2999 203.067 46.6656 209.639 46.6656C214.151 46.6656 218.349 44.4445 220.173 40.7647" fill="white"/><path d="M268.404 49.8833C266.808 51.6224 264.843 53.0083 262.643 53.9468C260.443 54.8854 258.06 55.3544 255.657 55.3221C244.332 55.3221 236.017 47.2002 236.017 34.7146C236.017 22.229 244.332 14.0276 255.657 14.0276C258.066 14.0089 260.451 14.4918 262.651 15.4436C264.85 16.3954 266.813 17.7938 268.404 19.544V14.9459H278.462V54.4058H268.404V49.8833ZM268.404 40.7646V28.6616C267.412 26.8041 265.896 25.2566 264.032 24.1985C262.168 23.1404 260.032 22.615 257.872 22.6833C251.3 22.6833 246.231 27.0489 246.231 34.7146C246.231 42.2989 251.3 46.6646 257.872 46.6646C262.384 46.6646 266.582 44.4435 268.404 40.7637" fill="white"/><path d="M286.213 0.166748H296.507V10.2763H286.213V0.166748ZM286.369 16.9453H296.427V54.4099H286.369V16.9453Z" fill="white"/><path d="M183.16 86.5139H176.185V96.4792H169.131V102.15H176.025V121.395C176.025 130.985 180.7 135.275 189.735 135.275C190.799 135.26 191.86 135.157 192.906 134.968V129.294H191.637C185.773 129.294 183.16 127.3 183.16 121.627V102.15H192.906V96.4792H183.16V86.5139Z" fill="white"/><path d="M215.752 95.6355C203.072 95.6355 195.307 104.605 195.307 115.724C195.307 126.766 203.072 135.811 215.752 135.811C228.431 135.811 236.198 126.764 236.198 115.724C236.197 104.605 228.43 95.6355 215.752 95.6355ZM215.752 129.524C208.382 129.524 202.597 124.158 202.597 115.724C202.597 107.29 208.382 101.922 215.752 101.922C223.121 101.922 228.908 107.29 228.908 115.724C228.908 124.158 223.122 129.524 215.752 129.524Z" fill="white"/><path d="M281.575 107.212C283.574 106.187 285.244 104.653 286.403 102.774C287.563 100.895 288.168 98.7448 288.152 96.5566C288.152 87.9707 281.891 82.7566 270.796 82.7566H250.033V134.895H273.492C285.854 134.895 292.352 129.22 292.352 120.25C292.351 112.809 287.756 108.899 281.575 107.212ZM257.326 88.8861H269.924C277.376 88.8861 280.625 91.9537 280.625 97.0148C280.625 102.076 277.376 105.144 269.924 105.144H257.326V88.8861ZM273.173 128.759H257.326V111.202H273.173C281.183 111.202 284.824 114.496 284.824 120.017C284.824 125.461 281.179 128.759 273.173 128.759Z" fill="white"/><path d="M326.157 121.549C325.473 123.883 324.001 125.929 321.976 127.36C319.951 128.792 317.49 129.527 314.983 129.448C308.248 129.448 304.444 125.537 304.444 118.176V96.4791H297.312V118.867C297.312 129.294 302.78 135.736 313.082 135.736C319.74 135.736 324.095 132.442 326.157 129.066V134.889H333.292V96.4791H326.157V121.549Z" fill="white"/><path d="M369.39 96.4791L357.583 122.853L344.977 96.4791H337.368L353.933 130.52L345.378 149H352.986L376.999 96.4791H369.39Z" fill="white"/><path d="M27.1026 88.5035C30.8602 88.3869 34.5726 89.3238 37.7926 91.2013C41.0126 93.0788 43.603 95.8168 45.2518 99.0857L50.9585 95.3284C46.4412 87.2016 37.9613 81.8345 27.0235 81.8345C11.3332 81.8345 0 93.644 0 108.822C0 124.001 11.3332 135.812 27.0235 135.812C37.9613 135.812 46.4462 130.446 50.9575 122.319L45.2508 118.562C43.6016 121.83 41.0111 124.568 37.7911 126.445C34.5711 128.322 30.859 129.259 27.1016 129.142C15.2948 129.142 7.52778 120.328 7.52778 108.822C7.52778 97.317 15.2958 88.5035 27.1026 88.5035Z" fill="white"/><path d="M64.3637 80.4534H57.2324V134.891H64.3637V80.4534Z" fill="white"/><path d="M107.278 101.923C109.753 101.905 112.185 102.556 114.299 103.802C116.413 105.048 118.126 106.84 119.246 108.976L124.552 105.373C122.839 102.351 120.298 99.8434 117.209 98.1257C114.12 96.4081 110.602 95.5465 107.041 95.6354C94.6781 95.6354 86.7539 104.605 86.7539 115.648C86.7539 126.764 94.6791 135.737 107.041 135.737C110.603 135.826 114.122 134.963 117.212 133.245C120.301 131.526 122.841 129.017 124.554 125.993L119.248 122.39C118.128 124.526 116.415 126.318 114.301 127.564C112.187 128.811 109.755 129.462 107.28 129.445C99.671 129.445 94.0464 124.154 94.0464 115.643C94.0444 107.212 99.67 101.923 107.278 101.923Z" fill="white"/><path d="M76.6196 135.737C79.1764 135.737 81.249 133.731 81.249 131.258C81.249 128.784 79.1764 126.779 76.6196 126.779C74.0629 126.779 71.9902 128.784 71.9902 131.258C71.9902 133.731 74.0629 135.737 76.6196 135.737Z" fill="white"/><path d="M80.1851 80.4534H73.0537V120.495H80.1851V80.4534Z" fill="white"/><path d="M160.799 97.8982V97.7393H152.138L136.597 113.882V80.4503H129.465V134.887H136.596V117.054L154.281 134.887H163.281V134.737L143.881 115.487L160.799 97.8982Z" fill="white"/></svg>